<?xml version="1.0" encoding="utf-8"?>
<!-- Generator: Adobe Illustrator 16.0.4, SVG Export Plug-In . SVG Version: 6.00 Build 0)  -->
<!DOCTYPE svg PUBLIC "-//W3C//DTD SVG 1.1//EN" "http://www.w3.org/Graphics/SVG/1.1/DTD/svg11.dtd">
<svg version="1.1" id="Layer_1" xmlns="http://www.w3.org/2000/svg" xmlns:xlink="http://www.w3.org/1999/xlink" x="0px" y="0px"
	 width="100px" height="100px" viewBox="0 0 100 100" enable-background="new 0 0 100 100" xml:space="preserve">
<filter  id="AI_BevelShadow_1" y="-20%" x="-20%" height="140%" width="140%">
	<feGaussianBlur  in="SourceAlpha" stdDeviation="4" result="blur"></feGaussianBlur>
	<feOffset  in="blur" dy="4" dx="4" result="offsetBlur"></feOffset>
	
		<feSpecularLighting  in="blur" result="specOut" surfaceScale="5" style="lighting-color:white" specularExponent="10" specularConstant="1">
		<fePointLight  z="-20000" y="-10000" x="-5000"></fePointLight>
	</feSpecularLighting>
	<feComposite  operator="in" in="specOut" in2="SourceAlpha" result="specOut"></feComposite>
	<feComposite  k2="1" operator="arithmetic" in="SourceGraphic" k1="0" k4="0" k3="1" in2="specOut" result="litPaint">
		</feComposite>
	<feMerge>
		<feMergeNode  in="offsetBlur"></feMergeNode>
		<feMergeNode  in="litPaint"></feMergeNode>
	</feMerge>
</filter>
<g filter="url(#AI_BevelShadow_1)">
	<path fill="#F1F2F2" stroke="#000000" stroke-miterlimit="10" d="M82.187,18.222C76.26,8.387,67.978,5.139,57.062,3.747
		C41.563,1.77,19.998,10.051,15.459,14.888c0,0-1.509,4.737,2.725,7.157c-3.329,7.895-3.428,9.476-4.048,14.865
		c0.116,1.82,0.381,3.559,0.721,5.193c-0.183,6.273-3.002,10.153-5.14,16.028c0,1.569,3.249,2.42,4.686,2.493
		c0.833,1.214,1.285,1.843,0.076,3.555c-0.302,1.282,0.91,2.47,1.889,2.872c-0.897,0.499-1.166,1.176-1.105,2.212
		c0.014,0.246,0.352,1.343,0.352,1.343c1.115,1.062,2.081,2.352,2.177,3.927c0.118,1.979-1.07,3.612,0.287,5.419
		c3.095,4.121,11.195,1.207,14.675-0.021c7.615,9.146,4.357,16.522,4.357,16.522h35.975c0,0-5.608-16.501-3.192-31.32
		c5.444-4.838,13.913-6.677,16.794-26.831C87.22,31.947,85.477,23.675,82.187,18.222z M56.654,13.149l-1.181-0.564l0.864-1.794
		l1.181,0.567c0.314-0.403,0.698-0.74,1.118-1.005l-0.43-1.234L60.08,8.46l0.437,1.235c0.494-0.058,0.997-0.033,1.501,0.081
		l0.564-1.177l1.793,0.861l-0.562,1.177c0.399,0.32,0.735,0.7,1.002,1.121l1.231-0.432l0.66,1.877l-1.233,0.433
		c0.057,0.495,0.03,1.001-0.082,1.502l1.178,0.565l-0.861,1.794l-1.175-0.567c-0.326,0.403-0.704,0.74-1.124,1.003l0.433,1.235
		l-1.876,0.659l-0.437-1.234c-0.493,0.059-0.999,0.031-1.501-0.082l-0.562,1.176l-1.801-0.86l0.568-1.178
		c-0.401-0.319-0.737-0.701-1.004-1.12l-1.234,0.432l-0.655-1.88l1.232-0.432C56.516,14.156,56.542,13.652,56.654,13.149z
		 M33.999,20.498c-0.284,0.198-0.595,0.343-0.918,0.433l0.041,0.882l-1.342,0.064l-0.042-0.879
		c-0.329-0.061-0.653-0.172-0.957-0.341l-0.591,0.654l-0.996-0.904l0.59-0.651c-0.198-0.285-0.344-0.595-0.431-0.917l-0.884,0.042
		l-0.067-1.341l0.882-0.044c0.059-0.33,0.172-0.654,0.342-0.954l-0.655-0.594l0.903-0.995l0.654,0.589
		c0.284-0.193,0.594-0.342,0.919-0.432l-0.046-0.879l1.346-0.068l0.042,0.88c0.329,0.059,0.653,0.172,0.957,0.343l0.591-0.653
		l0.994,0.9l-0.592,0.655c0.2,0.286,0.344,0.596,0.436,0.918l0.88-0.045l0.065,1.343l-0.881,0.044
		c-0.056,0.329-0.17,0.653-0.341,0.957l0.652,0.589l-0.901,0.998L33.999,20.498z M41.383,25.021c-0.331,0.229-0.687,0.396-1.061,0.5
		l0.049,1.016l-1.547,0.076l-0.048-1.017c-0.382-0.067-0.753-0.198-1.103-0.393l-0.683,0.754l-1.149-1.043l0.685-0.754
		c-0.232-0.325-0.398-0.684-0.501-1.058l-1.014,0.05l-0.077-1.548l1.017-0.048c0.066-0.385,0.196-0.756,0.392-1.102l-0.753-0.684
		l1.04-1.15l0.756,0.683c0.325-0.229,0.684-0.395,1.057-0.501l-0.049-1.015l1.548-0.077l0.048,1.016
		c0.38,0.067,0.754,0.2,1.103,0.396l0.686-0.752l1.148,1.039l-0.686,0.755c0.23,0.326,0.397,0.686,0.503,1.055l1.016-0.048
		l0.075,1.549l-1.016,0.05c-0.064,0.381-0.197,0.753-0.396,1.101l0.756,0.683l-1.042,1.151L41.383,25.021z M59.412,37.944
		c-0.905,0.568-1.231,0.991-3.217,1.236v2.652h-3.973v-2.652c-0.995-0.246-1.99-0.668-2.891-1.236l-1.94,1.982l-3-3.02l1.997-2.003
		c-0.57-0.903-0.981-2.009-1.225-3.002h-2.873v-3.972h2.873c0.244-0.994,0.667-2.204,1.237-3.105l-1.985-2.046l3.021-3.05
		l1.894,1.967c0.9-0.572,1.896-1.008,2.891-1.252v-2.444h3.973v2.446c1.985,0.243,2.312,0.664,3.217,1.233l2.1-1.983l3.079,3.02
		l-1.95,2.109c0.569,0.902,1.021,2.112,1.263,3.105h3.212v3.972h-3.212c-0.242,0.993-0.667,2.099-1.233,3.002l1.981,1.994
		l-3.138,3.024L59.412,37.944z M79.955,39.82l1.83,0.881l-1.338,2.79l-1.83-0.88c-0.496,0.623-1.09,1.147-1.74,1.557l0.671,1.917
		l-2.919,1.025l-0.674-1.917c-0.765,0.091-1.553,0.051-2.33-0.126l-0.882,1.83l-2.79-1.337l0.88-1.832
		c-0.622-0.496-1.145-1.086-1.555-1.742l-1.916,0.673l-1.027-2.919l1.92-0.672c-0.09-0.766-0.054-1.553,0.127-2.333l-1.833-0.876
		l1.339-2.79l1.832,0.877c0.493-0.622,1.089-1.147,1.737-1.556l-0.669-1.916l2.922-1.026l0.672,1.917
		c0.764-0.087,1.555-0.049,2.331,0.128l0.88-1.831l2.79,1.341l-0.882,1.832c0.625,0.495,1.15,1.083,1.558,1.736l1.918-0.67
		L82,36.814l-1.916,0.675C80.174,38.257,80.132,39.044,79.955,39.82z M38.477,51.463l6.182,17.808h-3.842l-1.281-3.842h-7.044
		l-1.33,3.842h-3.645l6.429-17.808H38.477z M38.575,62.546l-2.462-7.586l-2.636,7.586H38.575z M47.002,65.994h3.129v3.276h-3.129
		V65.994z M53.506,51.413h3.818v17.857h-3.818V51.413z M60.7,65.994h3.127v3.276H60.7V65.994z"/>
</g>
</svg>
