<?xml version="1.0" encoding="utf-8"?>
<!-- Generator: Adobe Illustrator 16.0.4, SVG Export Plug-In . SVG Version: 6.00 Build 0)  -->
<!DOCTYPE svg PUBLIC "-//W3C//DTD SVG 1.1//EN" "http://www.w3.org/Graphics/SVG/1.1/DTD/svg11.dtd">
<svg version="1.1" xmlns="http://www.w3.org/2000/svg" xmlns:xlink="http://www.w3.org/1999/xlink" x="0px" y="0px" width="100px"
	 height="100px" viewBox="0 0 100 100" enable-background="new 0 0 100 100" xml:space="preserve">
<g id="Layer_1">
	<g>
		<path fill="#DEDEDE" stroke="#000000" stroke-miterlimit="10" d="M82.188,18.222C76.26,8.387,67.979,5.139,57.062,3.747
			c-15.5-1.977-37.064,6.304-41.604,11.141c0,0-1.509,4.737,2.725,7.157c-3.329,7.895-3.428,9.476-4.048,14.865
			c0.116,1.82,0.381,3.559,0.721,5.193c-0.183,6.273-3.002,10.153-5.14,16.028c0,1.569,3.249,2.42,4.686,2.493
			c0.833,1.214,1.285,1.843,0.076,3.556c-0.302,1.281,0.91,2.469,1.889,2.871c-0.897,0.499-1.166,1.176-1.105,2.213
			c0.014,0.245,0.352,1.342,0.352,1.342c1.115,1.062,2.081,2.353,2.177,3.928c0.118,1.979-1.07,3.611,0.287,5.419
			c3.095,4.121,11.195,1.207,14.675-0.021c7.615,9.146,4.357,16.521,4.357,16.521h35.975c0,0-5.607-16.501-3.191-31.32
			c5.443-4.838,13.912-6.677,16.793-26.831C87.221,31.947,85.477,23.675,82.188,18.222z M48.1,47.301c-5.744,0-10.4-4.657-10.4-10.4
			c0-5.744,4.656-10.4,10.4-10.4s10.4,4.657,10.4,10.4C58.5,42.644,53.844,47.301,48.1,47.301z"/>
		<path fill="#BABABA" stroke="#000000" stroke-miterlimit="10" d="M48.3,46.9c-5.744,0-10.4-4.657-10.4-10.4
			c0-5.744,4.656-10.4,10.4-10.4s10.4,4.656,10.4,10.4C58.7,42.243,54.044,46.9,48.3,46.9z M72.22,31.326h-3.777
			c-0.493-1.894-1.253-3.717-2.231-5.37l2.68-2.687c0.812-0.812,0.812-2.133,0-2.945l-4.412-4.413
			c-0.812-0.812-2.13-0.813-2.941-0.001l-2.692,2.68c-1.654-0.979-3.477-1.739-5.37-2.231V12.58c0-1.148-0.906-2.08-2.055-2.08
			h-6.24c-1.148,0-2.055,0.932-2.055,2.08v3.778c-1.894,0.492-3.716,1.252-5.37,2.231l-2.687-2.68c-0.812-0.813-2.132-0.813-2.944,0
			l-4.414,4.412c-0.812,0.812-0.812,2.129,0,2.941l2.679,2.692c-0.978,1.653-1.739,3.477-2.23,5.37H24.38
			c-1.148,0-2.08,0.906-2.08,2.054v6.241c0,1.148,0.932,2.055,2.08,2.055h3.778c0.491,1.893,1.251,3.715,2.23,5.369l-2.681,2.688
			c-0.812,0.811-0.812,2.131,0,2.943l4.413,4.414c0.812,0.812,2.129,0.812,2.941,0l2.692-2.678c1.654,0.979,3.477,1.738,5.37,2.23
			v3.777c0,1.148,0.906,2.08,2.055,2.08h6.24c1.148,0,2.055-0.932,2.055-2.08v-3.777c1.894-0.492,3.716-1.252,5.37-2.23l2.687,2.68
			c0.812,0.812,2.132,0.812,2.943,0l4.414-4.412c0.812-0.812,0.813-2.131,0.001-2.941l-2.679-2.693
			c0.979-1.654,1.738-3.477,2.231-5.369h3.777c1.148,0,2.08-0.906,2.08-2.055V33.38C74.3,32.232,73.368,31.326,72.22,31.326z"/>
	</g>
</g>
<g id="Layer_2">
</g>
</svg>
