<?xml version="1.0" encoding="utf-8"?>
<!-- Generator: Adobe Illustrator 16.0.4, SVG Export Plug-In . SVG Version: 6.00 Build 0)  -->
<!DOCTYPE svg PUBLIC "-//W3C//DTD SVG 1.1//EN" "http://www.w3.org/Graphics/SVG/1.1/DTD/svg11.dtd">
<svg version="1.1" xmlns="http://www.w3.org/2000/svg" xmlns:xlink="http://www.w3.org/1999/xlink" x="0px" y="0px"
	 width="171.117px" height="207.213px" viewBox="0 0 171.117 207.213" enable-background="new 0 0 171.117 207.213"
	 xml:space="preserve">
<g id="Layer_1" xmlns:svg="http://www.w3.org/2000/svg">
	<g>
		<title>Layer 1</title>
		<g id="svg_1">
			<path id="svg_2" fill="#FFFFFF" stroke="#000000" stroke-miterlimit="10" d="M119.059,3c1.439,0.226,0.352,2.984,2,3
				c0.553,1.665-2.438,1.671-3,3c-0.682,1.613,0.729,4.525-3,4c-0.369,1.701,0.778,1.887,2,2c0.352,1.199-1.695,0.493-2,1
				c-0.69,1.15,1.719,2.81,0,4c-7.646-0.36-5.396-6.673-3-11c1.666,0,3.334,0,5,0c0.367-1.701-0.781-1.887-2-2
				C115.377,4.652,118.152,4.762,119.059,3z"/>
			<path id="svg_3" fill="#FFFFFF" stroke="#000000" stroke-miterlimit="10" d="M66.059,21c-2.488,0.154-3.096-1.571-5-2
				c1.128-1.872,1.182-4.818,5-4c0.085-1.419,0.165-2.832-1-3c-1.086-0.248-0.679-1.989-2-2c1.17-1.496,1.243-4.09,3-5
				c5.877,0.279,0.989,6.698,1,10c0.443,0.89,0.877,1.788,2,2c1.821,0.27-1.907-6.124,2-3c0.409-2.41-1.827-2.174-1-5
				c1.333,0,2.666,0,4,0c-1.009,6.459,3.217,6.75,1,12c-3.534-1.595-5.474,1.019-8-2C66.085,19.027,66.282,20.224,66.059,21z"/>
			<path id="svg_4" fill="#FFFFFF" stroke="#000000" stroke-miterlimit="10" d="M79.059,8c1.793-0.127,2.109,1.224,4,1
				c-0.798,1.869-1.671,3.662-2,6c-2.41,0.409-2.174-1.827-5-1C76.955,11.896,77.612,9.554,79.059,8z"/>
			<path id="svg_5" fill="#FFFFFF" stroke="#000000" stroke-miterlimit="10" d="M105.059,9c1.312,0.353,1.572,1.76,3,2
				c-0.678,2.323-3.322,2.677-4,5c-2.209-0.125-0.426-4.242-1-6C104.221,10.163,104.836,9.779,105.059,9z"/>
			<path id="svg_6" fill="#FFFFFF" stroke="#000000" stroke-miterlimit="10" d="M50.059,16c0.28,1.589-5.402,1.401-3-1
				C46.673,15.384,50.07,16.069,50.059,16z"/>
			<path id="svg_7" fill="#FFFFFF" stroke="#000000" stroke-miterlimit="10" d="M52.059,16c1.463,0.869,3.169,1.497,3,4
				c-0.851,0.184-0.944-0.39-1-1c-2.06,1.983-0.942,1.983-3,0C51.587,18.195,52.102,17.376,52.059,16z"/>
			<path id="svg_8" fill="#FFFFFF" stroke="#000000" stroke-miterlimit="10" d="M105.059,17c0.893,0.776,2.258,1.075,4,1
				c2.365,4.146-3.156,4.285-2,10c-1.164-0.163-1.779,0.221-2,1c-3.386-0.615-1.271-6.73-3-9
				C103.498,19.44,104.498,18.44,105.059,17z"/>
			<path id="svg_9" fill="#FFFFFF" stroke="#000000" stroke-miterlimit="10" d="M136.059,21c0.851-2.932,3.219,0.598,5,0
				c-0.914,1.752-1.856,3.474-5,3C136.752,23.193,137.613,21.261,136.059,21z"/>
			<path id="svg_10" fill="#FFFFFF" stroke="#000000" stroke-miterlimit="10" d="M68.059,21c-0.319,2.348-1.581,3.753-1,7
				c-2.813-0.188-4.261-1.74-4-5C66.136,23.745,64.98,20.255,68.059,21z"/>
			<path id="svg_11" fill="#FFFFFF" stroke="#000000" stroke-miterlimit="10" d="M149.059,22c2.481-0.15,4.148,0.517,5,2
				c0.531,2.813-2.664,3.172-4,4c-1.49,0.923-2.307,2.339-4,2c-0.182,4.153-3.801,4.868-6,7c0.026,0.972,1.227,0.776,2,1
				c-1.938,4.761-5.561-1.167-6-4c3.133-2.201,6.312-4.354,8-8c2.09-0.424,2.647,0.685,4,1C150.227,27.168,148.51,23.453,149.059,22
				z"/>
			<path id="svg_12" fill="#FFFFFF" stroke="#000000" stroke-miterlimit="10" d="M26.059,23c2.445-1.466,2.828,1.445,4,2
				c0.682,0.323,2.427-0.471,3,0c0.914,0.751,0.268,2.024,1,3c0.176,0.234,1.947,0.829,2,1c0.687,2.204-0.51,5.403,0,8
				c-0.807,0.86-2.74,0.593-3,2c-1.978-0.047-0.07-2.25,0-2c-0.31-1.112-2.557-0.963-2-3c-3.374,3.074-7.716-3.948-2-4
				c-1.005,3.337,1.387,3.279,4,3c0.116-1.023-4.314-2.023-1-3c-0.818-2.516-5.273-1.395-7-3C24.931,25.206,26.282,24.891,26.059,23
				z"/>
			<path id="svg_13" fill="#FFFFFF" stroke="#000000" stroke-miterlimit="10" d="M115.059,41c-1.719,1.282-1.24,4.761-4,5
				c0.16,1.172,1.822,0.843,3,1c-1.285,1.714-2.065,3.932-5,4c0.229,1.274,2.984,1.31,3,0c3.072,1.562-1.738,3.48-3,4
				c1.26,0.91,3.211,2.583-1,3c0.16,1.172,1.822,0.843,3,1c2.562-2.105,3.81-5.526,4-10c1.793-0.127,2.107,1.224,4,1
				c0.02,6.017-6.019,5.983-6,12c-3.979,0.73-4.021,0.73-8,0c0.026-0.973,1.227-0.776,2-1c0.271-3.937-0.386-6.949-3-8
				c-0.502-2.317,1.627-2.234,2-4c0.334-1.588-0.951-1.744-1-3c-0.091-2.292,0.94-1.896,2-4c-0.422-1.552-1.928-2.731-2-4
				c-0.133-2.292,1.568-1.863,2-3c0.692-1.829-0.768-4.84,1-6c1.328,1.004,3.721,0.945,4,3c0.185,2.181-0.815,3.181-3,3
				c1.979,3.182,4.652-1.252,5-3c0.437-1.864-2.432-1.217-3-2c-1.117-1.535-0.261-4.03-1-6c1.277-1.368,4.721-1.368,6,0
				c0.729,2.728-1.988,2.013-2,4c-0.629,2.721,2.262,2.673,3,4c0.916,1.651,1.625,2.949,0,5c-1.086-0.248-0.679-1.989-2-2
				c-1.619,1.713-0.932,5.737-5,5c1.914,2.809,5.213-1.375,8-1c0.84,1.16,1.318,2.681,1,5c-3.082-0.748-1.22,3.448-5,2
				C113.646,43.59,115.885,43.826,115.059,41z"/>
			<path id="svg_14" fill="#FFFFFF" stroke="#000000" stroke-miterlimit="10" d="M119.059,25c1.479,0.52,2.521,1.479,4,2
				c-0.869,1.463-1.498,3.169-4,3C117.773,28.686,117.773,26.313,119.059,25z"/>
			<path id="svg_15" fill="#FFFFFF" stroke="#000000" stroke-miterlimit="10" d="M136.059,26c1,0,1.998,0,3,0c0,1,0,2,0,3
				C136.877,29.181,135.877,28.181,136.059,26z"/>
			<path id="svg_16" fill="#FFFFFF" stroke="#000000" stroke-miterlimit="10" d="M130.059,28c1,0,1.998,0,3,0
				c1.151,1.182,1.131,3.535,1,6c-1.164-0.163-1.779,0.221-2,1C129.346,34.588,127.932,30.244,130.059,28z"/>
			<path id="svg_17" fill="#FFFFFF" stroke="#000000" stroke-miterlimit="10" d="M155.059,33c-1.893,1.108-4.726,1.275-7,2
				C147.423,31.073,154.71,27.054,155.059,33z"/>
			<path id="svg_18" fill="#FFFFFF" stroke="#000000" stroke-miterlimit="10" d="M21.059,32c3.79,0.819,1.536,6.604-2,6
				c-0.025-4.306-5.208,1.439-4-5C17.613,33.764,19.656,34.473,21.059,32z"/>
			<path id="svg_19" fill="#FFFFFF" stroke="#000000" stroke-miterlimit="10" d="M163.059,34c2.868,1.496,2.76,2.65,2,4
				c-0.757,1.343-2.562,0.253-4,1c-1.515,0.785-2.683,2.691-4,2c-0.201,3.466-0.832,6.5-5,6c0.276-4.057,3.182-5.487,2-11
				c2.438-1.894,5.936-2.759,8,0C163.029,35.972,162.833,34.776,163.059,34z"/>
			<path id="svg_20" fill="#FFFFFF" stroke="#000000" stroke-miterlimit="10" d="M131.059,37c3.189-0.857,3.094,1.574,5,2
				c0.42,3.422-2.994,3.005-4,5c-1.381-0.307-0.799-2.508-1-4c-0.041-0.298-1.396-0.96-1-2
				C130.104,37.877,131.616,37.845,131.059,37z"/>
			<path id="svg_21" fill="#FFFFFF" stroke="#000000" stroke-miterlimit="10" d="M152.059,38c0.412,4.079-1.022,6.309-5,6
				c0.726-3.057-1.021-3.645-1-6C147.927,36.042,149.721,37.691,152.059,38z"/>
			<path id="svg_22" fill="#FFFFFF" stroke="#000000" stroke-miterlimit="10" d="M66.059,39c1.666,0,3.333,0,5,0
				c-1.874,1.904-0.11,2.512,0,5C67.017,44.708,65.349,43.042,66.059,39z"/>
			<path id="svg_23" fill="#FFFFFF" stroke="#000000" stroke-miterlimit="10" d="M99.059,39c2.318-0.319,3.84,0.16,5,1
				c0.77,4.434-4.176,3.159-5,6c0.627,2.039,5.053,0.28,4,4c-2.41-0.41-2.174,1.826-5,1C97.116,44.925,97.807,44.186,99.059,39z"/>
			<path id="svg_24" fill="#FFFFFF" stroke="#000000" stroke-miterlimit="10" d="M57.059,41c-0.723,3.056,1.022,3.644,1,6
				c-1.667,0-3.334,0-5,0C52.658,43.267,53.857,41.132,57.059,41z"/>
			<path id="svg_25" fill="#FFFFFF" stroke="#000000" stroke-miterlimit="10" d="M167.059,42c-0.033,3.634-2.938,4.393-7,4
				C161.178,42.754,163.568,40.184,167.059,42z"/>
			<path id="svg_26" fill="#FFFFFF" stroke="#000000" stroke-miterlimit="10" d="M42.059,45c1.031,0.003,0.701,1.253,1,2
				c0.448,1.121,1.749,2.284,2,5c-3.459,0.792-4.223-1.112-6-2C39.644,47.918,41.16,46.768,42.059,45z"/>
			<path id="svg_27" fill="#FFFFFF" stroke="#000000" stroke-miterlimit="10" d="M27.059,47c0.504,3.141-2.357,4.086,1,5
				c0.168,2.168-3.548,0.453-5,1c0.409-2.41-1.827-2.174-1-5C24.468,48.409,24.231,46.173,27.059,47z"/>
			<path id="svg_28" fill="#FFFFFF" stroke="#000000" stroke-miterlimit="10" d="M68.059,47c3.257-0.992,2.304,2.431,3,4
				c0.789,1.78,2.657,2.943,1,4C70.245,52.956,65.323,50.464,68.059,47z"/>
			<path id="svg_29" fill="#FFFFFF" stroke="#000000" stroke-miterlimit="10" d="M165.059,48c2.185-0.182,3.185,0.818,3,3
				C165.877,51.181,164.877,50.181,165.059,48z"/>
			<path id="svg_30" fill="#FFFFFF" stroke="#000000" stroke-miterlimit="10" d="M14.059,52c0.666,0,1.333,0,2,0
				c0,0.667,0,1.333,0,2c-0.667,0-1.334,0-2,0C14.059,53.333,14.059,52.667,14.059,52z"/>
			<path id="svg_31" fill="#FFFFFF" stroke="#000000" stroke-miterlimit="10" d="M126.059,53c0.976,0.027,0.775,1.224,1,2
				c-1.479,1.158-2.521,1.158-4,0C123.284,53.56,126.043,54.651,126.059,53z"/>
			<path id="svg_32" fill="#FFFFFF" stroke="#000000" stroke-miterlimit="10" d="M45.059,54c2.422,0.577,2.223,3.776,3,6
				c-1.314-1.02-3.687-0.98-5-2C43.578,56.52,44.538,55.479,45.059,54z"/>
			<path id="svg_33" fill="#FFFFFF" stroke="#000000" stroke-miterlimit="10" d="M88.059,55c0.698,3.078,0.698,1.921,0,5
				c0.447,2.885,4.303,2.364,5,5c0.281,2.615-0.365,4.301-3,4c0.614,0.89,1.209,1.788,0,2c1.694,1.971,5.039,2.293,4,7
				c-0.891,0.776-2.26,1.075-4,1c-1.428,4.426,3.385,2.616,3,6c-0.936,0.733-1.516,1.818-2,3c-3.164-1.374-3.344-0.218-7,0
				c0.927,3.072,6.261,1.738,8,4c0.826,2.826-1.41,2.59-1,5c-4.365-0.867-4.447-0.224-8-1c-1.21,3.159,3.048,1.508,4,2
				c-0.185-0.095,0.998,0.998,1,1c0.676,0.614,1.659,1.04,2,2c0.465,3.13-0.869,4.464-4,4c1.652,5.379,0.98,12.46,0,18
				c-1.857,0.306-0.165-3.317-1-4c-1.742-1.425,0.146-1.323,0-3c-0.141-1.604-0.765-1.705-1-3c-0.728-4,0.22-7.702-3-10
				c-0.424-2.09,0.685-2.648,1-4c-0.794-2.207-4.701-1.3-5-4c-0.753-3.753,3.819-2.18,4-5c-2.141-1.859-5.966-2.035-6-6
				c2.823-0.511,4.247-2.42,7-3c-0.509-2.045-3.557-1.185-5-3c-0.344-0.432,0.014-1.265-1-1c0.067-2.933,2.285-3.715,4-5
				c-2.478-1.992-4.474-6.48-1-9c1.759,0.241,2.279,1.72,2,4c2.332,0.334,4.307,1.025,5,3c1.312-0.354,1.572-1.761,3-2
				c-1.131-1.205-2.854-1.812-2-5c-1.229,0.436-2.056,1.279-2,3c-2.63,0.296-0.787-3.88-4-3c0-2.667,0-5.333,0-8
				C83.891,53.957,85.226,53.957,88.059,55z M88.059,77c0.146-2.48,0.188-4.853-2-5c-1.498,4.218-1.79-0.554-4-1
				C81.099,75.959,85.059,75.999,88.059,77z M85.059,80c2.278,0.279,3.759-0.241,4-2C87.285,78.228,84.05,76.992,85.059,80z
				 M88.059,82c-1.498,0.17-3.688-0.357-4,1C85.386,84.298,87.777,84.318,88.059,82z M87.059,92c-0.262,1.556-2.19,0.693-3,0
				C81.896,97.606,91.743,94.388,87.059,92z"/>
			<path id="svg_34" fill="#FFFFFF" stroke="#000000" stroke-miterlimit="10" d="M117.059,59c3.146-0.479,3.907,1.424,6,2
				c0.049,3.382-2.33,4.338-4,6c-0.936-0.733-1.516-1.819-2-3c-2.981,0.016,1.41,7.41-3,6c0.229,1.274,2.984,1.31,3,0
				c2.909,1.703-0.89,5.017-2,6c0.438,1.484,1.278-0.395,3,0c-1.607,3.512-2.386,5.64-7,4c-0.34-2.995-1.916-4.57-2-7
				c-0.062-1.889,1.818-2.276,2-4c0.188-1.788-1.271-2.115-1-4c1.793,0.127,2.107-1.225,4-1
				C115.502,62.777,115.574,60.183,117.059,59z"/>
			<path id="svg_35" fill="#FFFFFF" stroke="#000000" stroke-miterlimit="10" d="M161.059,60c1.334,0,2.666,0,4,0
				c-0.41,2.409,1.826,2.173,1,5c-2.543,0.58-4.877,4.004-7,2C161.757,64.851,161.965,64.012,161.059,60z"/>
			<path id="svg_36" fill="#FFFFFF" stroke="#000000" stroke-miterlimit="10" d="M102.059,64c3.988-0.989,3.01,2.988,7,2
				c-1.457,2.542-1.899,6.097-6,6C103.495,68.562,102.662,66.395,102.059,64z"/>
			<path id="svg_37" fill="#FFFFFF" stroke="#000000" stroke-miterlimit="10" d="M132.059,64c3.979-0.309,5.412,1.921,5,6
				c-1.312,1.283-3.687,1.283-5,0c-1.231,0.276-1.119,2.421-2,3c-0.953,0.625-3.188-0.71-3,1c-2.168,0.168-0.453-3.547-1-5
				C130.998,70.274,130.873,66.482,132.059,64z"/>
			<path id="svg_38" fill="#FFFFFF" stroke="#000000" stroke-miterlimit="10" d="M40.059,94c-0.044-1.71,0.743-2.59,2-3
				c-0.31-1.357-2.504-0.83-4-1c0.367-1.701-0.781-1.887-2-2c0.256-2.077,4.393-0.273,5-2c-0.659-2.995-2.138,0.956-4,0
				c-0.857-3.191,1.573-3.093,2-5c0.132-1.849-3.089-0.18-4-1c-0.659-0.592,0.735-3.466-1-3c-3.114,1.908,1.563,4.342,1,7
				c-2.245,2.126-6.589,0.712-7-2c0.007-2.993,1.797-4.203,4-5c-0.151-1.85-3.386-0.614-4-2c-0.649-3.649,0.673-5.327,2-7
				c1.146,0.187,2.333,0.333,3,1c1.103,1.104,1.231,3.647,3,5c0.427,0.327,2.665,0.587,3,1c0.793,0.979,0.36,3.076,1,4
				c0.674,0.974,1.862,1.484,3,2c-0.152,5.485,1.219,9.446,6,10c-0.305,4.304-0.071,8.07,4,8c0,2.333,0,4.667,0,7
				c-2.135,0.467-1.905-1.429-2-3c-1.988,1.666-1.272-0.091-4,0c1.431-4.765-4.182-2.486-3-7C43.817,94.241,42.337,93.72,40.059,94z
				"/>
			<path id="svg_39" fill="#FFFFFF" stroke="#000000" stroke-miterlimit="10" d="M120.059,68c1.354,0.981,1.998,2.668,3,4
				c0.791,3.458-1.113,4.222-2,6C117.711,75.778,119.518,69.652,120.059,68z"/>
			<path id="svg_40" fill="#FFFFFF" stroke="#000000" stroke-miterlimit="10" d="M24.059,69c0.997,2.442,0.331,2.13,1,6
				c-3.057,0.722-3.645-1.022-6-1C18.252,69.861,20.593,68.868,24.059,69z"/>
			<path id="svg_41" fill="#FFFFFF" stroke="#000000" stroke-miterlimit="10" d="M161.059,70c2.543,0.122,3.877,1.455,4,4
				c-1.287,1.837-4.479,4.4-7,2c-2.209,0.125-0.426,4.242-1,6c-1.268-1.733-3.381-2.621-3-6c0.715-0.731,1.164-1.357,2-2
				C157.316,73.032,158.943,71.442,161.059,70z"/>
			<path id="svg_42" fill="#FFFFFF" stroke="#000000" stroke-miterlimit="10" d="M82.059,71c2.21,0.446,2.502,5.218,4,1
				c2.188,0.147,2.146,2.52,2,5C85.059,75.999,81.099,75.959,82.059,71z"/>
			<path id="svg_43" fill="#FFFFFF" stroke="#000000" stroke-miterlimit="10" d="M148.059,71c2.873,0.126,4.748,1.251,4,5
				c-1.281,0.649-2.787,0.198-4,1c-2.293,1.514-2.85,5.284-7,5c0.851,2.931,3.219-0.598,5,0c0.146,3.144-2.562,3.435-5,4
				c0.026,0.972,1.227,0.776,2,1c-0.188,2.812-1.74,4.26-5,4c1.965,1.872,0.578,4.817-3,4c0.438,1.23,1.278,2.053,3,2
				c0.31,2.306-2.89,1.111-3,3c-2.256-0.745-0.393-5.609-1-8c2.352-0.319,2.238-3.095,4-4c0.146-2.375-2.115-2.793,0-5
				c1.023-1.07,1.074-5.698,3-8C145.777,76.053,146.674,73.283,148.059,71z"/>
			<path id="svg_44" fill="#FFFFFF" stroke="#000000" stroke-miterlimit="10" d="M64.059,74c2.86,0.139,1.828,4.171,2,7
				C61.544,81.128,61.29,75.91,64.059,74z"/>
			<path id="svg_45" fill="#FFFFFF" stroke="#000000" stroke-miterlimit="10" d="M133.059,74c1.793-0.127,2.107,1.224,4,1
				c0.781,4.448-0.94,6.391-5,6C132.068,78.343,131.682,75.289,133.059,74z"/>
			<path id="svg_46" fill="#FFFFFF" stroke="#000000" stroke-miterlimit="10" d="M104.059,75c4.243-0.398,5.146,5.467,2,7
				C102.256,82.801,104.785,77.271,104.059,75z"/>
			<path id="svg_47" fill="#FFFFFF" stroke="#000000" stroke-miterlimit="10" d="M124.059,81c-0.479-3.146,1.424-3.909,2-6
				c1.666,0,3.334,0,5,0c-1.5,1.167-2.445,2.888-5,3c-0.297,2.629,3.879,0.787,3,4C125.919,83.11,126.415,82.468,124.059,81z"/>
			<path id="svg_48" fill="#FFFFFF" stroke="#000000" stroke-miterlimit="10" d="M14.059,77c1.906,1.876,1.809-0.594,5,0
				c0.898,1.768,2.414,2.918,3,5c0.698,0.388,2.376-0.485,3,0c0.94,0.731,0.268,2.023,1,3c0.746,0.995,3.711,3.564,5,5
				c-0.028,0.972-1.224,0.776-2,1c1.423,2.576,2.342,5.657,6,6c-0.835,5.835,1.916,8.083,6,9c-0.41,2.409,1.826,2.173,1,5
				c-4.59,1.396-12.948,4.117-13-3c3.246-0.58,4.652,0.681,7,1c-0.011-1.677-1.169-2.138-2-3c-0.221-0.229-0.781-1.901-1-2
				c-0.333-0.15-1.803,0.271-2,0c-0.477-0.654,0.38-2.277,0-3c-2.319,0.318-3.84-0.161-5-1c0.436-1.23,1.279-2.054,3-2
				c-0.904-3.367-2.238-0.118-4-2c1.753-3.405-0.324-3.725-3-5c0.443-0.891,0.877-1.789,2-2c-1.773-1.561-5.328-1.339-4-6
				c-2.359,1.468-1.861,2.11-5,1C13.681,82.711,14.069,79.656,14.059,77z"/>
			<path id="svg_49" fill="#FFFFFF" stroke="#000000" stroke-miterlimit="10" d="M89.059,78c-0.24,1.759-1.722,2.279-4,2
				C84.05,76.992,87.285,78.228,89.059,78z"/>
			<path id="svg_50" fill="#FFFFFF" stroke="#000000" stroke-miterlimit="10" d="M148.059,79c1.313,1.02,3.688,0.98,5,2
				c1.068,3.736-2.48,2.85-2,6c-1.666,0-3.334,0-5,0C148.602,84.562,147.109,81.067,148.059,79z"/>
			<path id="svg_51" fill="#FFFFFF" stroke="#000000" stroke-miterlimit="10" d="M84.059,83c0.308-1.357,2.501-0.83,4-1
				C87.777,84.318,85.386,84.298,84.059,83z"/>
			<path id="svg_52" fill="#FFFFFF" stroke="#000000" stroke-miterlimit="10" d="M114.059,82c4.082-0.305,0.532,2.087,1,4
				c-2.322,0.728-7.474,2.532-7-2C109.581,85.539,114.914,85.781,114.059,82z"/>
			<path id="svg_53" fill="#FFFFFF" stroke="#000000" stroke-miterlimit="10" d="M129.059,83c0.48,2.264-2.507,6.004-4,3
				c0-0.667,0-1.333,0-2C126.852,84.127,127.166,82.775,129.059,83z"/>
			<path id="svg_54" fill="#FFFFFF" stroke="#000000" stroke-miterlimit="10" d="M66.059,84c2.86,0.139,1.828,4.171,2,7
				C65.345,90.588,63.932,86.244,66.059,84z"/>
			<path id="svg_55" fill="#FFFFFF" stroke="#000000" stroke-miterlimit="10" d="M69.059,87c1.333,0,2.666,0,4,0
				c2.466,3.01,1.288,4.462,1,9c-3.676,0.962-3.976-4.913-1-5C72.431,88.96,68.006,90.719,69.059,87z"/>
			<path id="svg_56" fill="#FFFFFF" stroke="#000000" stroke-miterlimit="10" d="M17.059,88c3.702-0.036,1.117,6.216,5,6
				c-2.141,2.718-5.966-1.301-6-4C17.031,89.972,16.834,88.776,17.059,88z"/>
			<path id="svg_57" fill="#FFFFFF" stroke="#000000" stroke-miterlimit="10" d="M33.059,88c2.116-0.737,1.344,1.261,2,2
				c0.727,0.818,3.982,2.812,2,5C33.724,94.738,30.565,90.992,33.059,88z"/>
			<path id="svg_58" fill="#FFFFFF" stroke="#000000" stroke-miterlimit="10" d="M126.059,88c0.127,1.793-1.225,2.109-1,4
				C122.156,91.82,122.646,87.247,126.059,88z"/>
			<path id="svg_59" fill="#FFFFFF" stroke="#000000" stroke-miterlimit="10" d="M145.059,88c2.201,1.464,4.687,2.649,4,7
				c-1.617,1.716-4.185,2.484-8,2C140.645,92.254,144.834,92.108,145.059,88z"/>
			<path id="svg_60" fill="#FFFFFF" stroke="#000000" stroke-miterlimit="10" d="M54.059,89c0.85-0.184,0.943,0.389,1,1
				c0.056,3.277,2.844,3.822,2,8C50.191,100.148,51.365,90.718,54.059,89z"/>
			<path id="svg_61" fill="#FFFFFF" stroke="#000000" stroke-miterlimit="10" d="M84.059,92c0.806,0.693,2.738,1.556,3,0
				C91.743,94.388,81.896,97.606,84.059,92z"/>
			<path id="svg_62" fill="#FFFFFF" stroke="#000000" stroke-miterlimit="10" d="M100.059,99c-1.093-2.297-4.91,0.996-6,2
				c-2.813-1.011,0.275-4.248,0-6c1.549-1.117,2.082-3.251,5-3c1.062,3.729-3.752,1.583-3,5c3.146,1.145,2.43-1.57,4-2
				c4.42,0.859,5.101,3.919,4,8c-2.349,0.318-3.754,1.58-7,1c-0.682,7.987-2.891,14.442-2,24c-3.015-2.135-2.674-6.771-2-11
				c0.506-3.185,1.365-9.911,0-15C95.298,100.906,98.068,100.343,100.059,99z"/>
			<path id="svg_63" fill="#FFFFFF" stroke="#000000" stroke-miterlimit="10" d="M106.059,94c1.852-3.055,4.752,1.154,8,0
				c-0.674,1.421-6.119,3.088-3,5c0.187,0.85-0.391,0.943-1,1c-0.852-0.184-0.94,0.389-1,1c-2.598,0.292-3.477-6.762,1-5
				C109.906,94.15,106.672,95.386,106.059,94z"/>
			<path id="svg_64" fill="#FFFFFF" stroke="#000000" stroke-miterlimit="10" d="M130.059,93c2.299,3.539,0.01,9.597-5,9
				c-1.201-1.313-0.391-1.573,0-3c-3.147-0.483-2.265,3.068-6,2c2.338-2.995,6.159-4.507,8-8C128.059,93,129.057,93,130.059,93z"/>
			<path id="svg_65" fill="#FFFFFF" stroke="#000000" stroke-miterlimit="10" d="M68.059,94c2.134-0.467,1.904,1.428,2,3
				c2.464-0.132,4.818-0.152,6,1c1.84,2.492,0.702,7.964,4,9c-4.159,4.548,0.827,9.994,0,17c-3.729-2.271-2.957-9.044-4-14
				c-1.403-1.599-3.445-2.556-6-3c-0.87-3.87,2.442-3.558,3-6c-0.626-2.375-6.156,0.155-7-2C65.201,95.809,67.632,95.907,68.059,94z
				"/>
			<path id="svg_66" fill="#FFFFFF" stroke="#000000" stroke-miterlimit="10" d="M39.059,96c2.145-0.104,3.28,2.813,4,4
				c1.054,1.738,2.532,0.479,1,4c-1.279-1.388-4.722-0.612-6-2C36.864,99.016,37.782,98.6,39.059,96z"/>
			<path id="svg_67" fill="#FFFFFF" stroke="#000000" stroke-miterlimit="10" d="M23.059,98c0.586,0.789,2.026,1.758,3,3
				c0.815,1.041,2.221,2.272,2,4C22.906,106.295,20.539,101.249,23.059,98z"/>
			<path id="svg_68" fill="#FFFFFF" stroke="#000000" stroke-miterlimit="10" d="M143.059,101c1.729,1.618-3.383,4.839-5,3
				c-0.094-0.105,0.049-2.004,0-2c-1.895,0.165-4.312,4.676-6,1c-0.815-4.486,7.547,0.214,7-4
				C140.92,99.137,142.398,99.658,143.059,101z"/>
			<path id="svg_69" fill="#FFFFFF" stroke="#000000" stroke-miterlimit="10" d="M115.059,105c-3.812,0.521-6.844,1.823-9,4
				c-0.725,2.274-0.893,5.108-2,7c0,1-0.002,2,0,3c0.162,1.162-0.223,1.778-1,2c0-1-0.002-2,0-3c0-0.667,0-1.333,0-2
				c1.479-4.745,1.393-8.437,2-12C109.089,103.708,115.412,95.389,115.059,105z"/>
			<path id="svg_70" fill="#FFFFFF" stroke="#000000" stroke-miterlimit="10" d="M119.059,108c2.856-0.521-1.615-1.479-2-2
				c1.065-2.267,3.031-3.634,6-4c0.614,3.336,2.938,3.414,1,7c-4.291-0.291-6.605,1.392-9,3c0.355,5.354-2.974,7.026-2,13
				c-4.156-0.086-2.349-6.979-1-9c0.498-0.75,2.52-5.565,2-8c0.812-0.19,0.996-1.003,2-1
				C117.673,106.718,117.777,107.944,119.059,108z"/>
			<path id="svg_71" fill="#FFFFFF" stroke="#000000" stroke-miterlimit="10" d="M64.059,128c-3.12-0.549-1.535-5.8-3-8
				c-1.465-2.202-2.65-4.685-7-4c-0.777-0.89-1.076-2.258-1-4c-5.082,0.748-7.669-0.998-9-4c-0.877-3.21,2.593-2.073,3-4
				c2.181-0.182,3.181,0.817,3,3c4.977-0.978,5.956,2.043,9,3c-0.989,3.989,2.988,3.011,2,7
				C63.002,119.47,65.444,125.372,64.059,128z"/>
			<path id="svg_72" fill="#FFFFFF" stroke="#000000" stroke-miterlimit="10" d="M128.059,105c3.086,0.246,5.651,1.015,8,2
				c-1.39,1.506-5.627,1.562-9,2C128.802,106.96,126.312,107.039,128.059,105z"/>
			<path id="svg_73" fill="#FFFFFF" stroke="#000000" stroke-miterlimit="10" d="M100.059,107c0.893,0.442,1.789,0.878,2,2
				c-0.49,3.353-0.771,8.735-1,14c-0.002,0.042-1.174,0.132-1,1c0.039,0.204,1.022,0.078,1,1c-0.031,1.157-0.064,1.782-1,2
				c-3.701,1.938-0.74-2.97-2-4c-0.074-0.062-0.988,0.069-1,0c-0.285-1.49,0.978-1.485,1-2c0.037-0.765-0.99-1.095-1-1
				c0.353-2.926,0.604-7.472,1-9c0.062-0.246,0.951-0.092,1-1C99.102,109.17,100.473,108.396,100.059,107z"/>
			<path id="svg_74" fill="#FFFFFF" stroke="#000000" stroke-miterlimit="10" d="M89.059,108c1.614-0.282,1.721,0.944,3,1
				c-1.035,4.479-0.136,11.146-2,17c-3.521-3.14-1.588-10.478-1-15C89.206,109.862,87.646,109.294,89.059,108z"/>
			<path id="svg_75" fill="#FFFFFF" stroke="#000000" stroke-miterlimit="10" d="M81.059,111c1.545-3.058,0.88,4.337,1,6
				C80.512,120.056,81.177,112.663,81.059,111z"/>
			<path id="svg_76" fill="#FFFFFF" stroke="#000000" stroke-miterlimit="10" d="M125.059,110c2.709,0.406-0.929,3.644-1,5
				c-0.015,0.267,0.102,0.755,0,1c-0.24,0.597-0.939,0.833-1,1c-0.83,2.38,0.219,7.153-3,7
				C119.939,117.55,122.686,113.959,125.059,110z"/>
			<path id="svg_77" fill="#FFFFFF" stroke="#000000" stroke-miterlimit="10" d="M119.059,112c0.976,0.026,0.775,1.224,1,2
				c-0.646,4.687-3.512,7.155-3,13C113.164,123.815,116.827,115.228,119.059,112z"/>
			<path id="svg_78" fill="#FFFFFF" stroke="#000000" stroke-miterlimit="10" d="M128.059,112c3.113,1.908-1.562,4.342-1,7
				C123.943,117.092,128.62,114.658,128.059,112z"/>
			<path id="svg_79" fill="#FFFFFF" stroke="#000000" stroke-miterlimit="10" d="M72.059,113c2.687-1.146,1.172,2.323,2,3
				c0.091,0.075,0.969-0.095,1,0c0.816,2.563,0.276,7.176,0,8c-1.522-0.267-0.613-2.562-1-4
				C73.497,117.917,71.131,115.94,72.059,113z"/>
			<path id="svg_80" fill="#FFFFFF" stroke="#000000" stroke-miterlimit="10" d="M46.059,116c0.161-1.172,1.823-0.844,3-1
				c0.011,4.987,3.581,6.418,3,12c-3.775,0.95-2.356-3.351-3-5C48.089,119.519,47.119,117.265,46.059,116z"/>
			<path id="svg_81" fill="#FFFFFF" stroke="#000000" stroke-miterlimit="10" d="M64.059,115c1.965-0.481,1.54,0.928,2,2
				c0.816,1.906,1.202,4.101,1,8C64.756,122.968,64.375,119.017,64.059,115z"/>
			<path id="svg_82" fill="#FFFFFF" stroke="#000000" stroke-miterlimit="10" d="M56.059,119c2.614,1.051,3.27,4.062,3,8
				c-1.211-0.729-1.509-2.646-2-4C56.682,121.964,55.679,120.853,56.059,119z"/>
			<path id="svg_83" fill="#FFFFFF" stroke="#000000" stroke-miterlimit="10" d="M53.059,120c2.422,0.576,2.223,3.774,3,6
				C53.025,126.032,53.566,122.491,53.059,120z"/>
			<path id="svg_84" fill="#FFFFFF" stroke="#000000" stroke-miterlimit="10" d="M109.059,129c0.16-1.174,1.822-0.845,3-1
				c0.909,1.756,3.504,1.829,5,3c-0.123,4.455,2.467,6.199,3,10c-1.666,0-3.334-0.002-5,0c-0.857-0.808-0.595-2.74-2-3
				c-2.994,0.657,0.957,2.137,0,4c-7.224,0.89-4.974-7.694-7-12c4.189-1.19,1.784,4.214,4,5
				C112.412,134.155,109.995,129.843,109.059,129z"/>
			<path id="svg_85" fill="#FFFFFF" stroke="#000000" stroke-miterlimit="10" d="M104.059,132c-0.891,5.556,1.92,7.412,2,12
				c-3.64-0.362-5.64-2.362-6-6c-0.806,0.528-1.623,1.043-3,1c0.709-3.71-1.709-4.292-1-8
				C99.199,129.453,101.637,130.36,104.059,132z"/>
			<path id="svg_86" fill="#FFFFFF" stroke="#000000" stroke-miterlimit="10" d="M48.059,144c2.802,0.126,1.338,2.29,1,4
				C48.004,153.317,48.195,149.88,48.059,144z"/>
			<path id="svg_87" fill="#FFFFFF" stroke="#000000" stroke-miterlimit="10" d="M51.059,146c1.479-2.919,1.098,4.328,1,7
				c-0.124,3.36-1.817,7.399-1,10c2.936-3.397,2.833-9.833,3-16c3.204-0.88,2.047,4.841,2,8c-0.044,2.931-0.537,4.655-1,9
				c-0.797,7.468-2.945,16.212-5,24c-0.599,2.269-1.098,5.093-2,7c-0.23,0.483-0.943-0.097-1,1c-0.046,0.866-0.738,3.414-3,3
				c-0.689-2.31,0.535-4.162,1-6c1.081-4.282,2.398-6.997,4-11c0.142-0.356-0.276-1.774,0-2c0.082-0.069,0.978,0.083,1,0
				c1.192-4.601,0.503-10.041,2-16c-3.721-0.253-1.48,6.384-3,9c-1.161-0.299-1.09-2.521-1-4c0.062-1.024,0.932-0.664,1-1
				c0.198-0.99-1.009-0.883-1-1c0.07-0.947,0.876-2.271,1-4c0.093-1.312-0.184-2.699,0-4C49.599,155.153,51.378,151.788,51.059,146z
				"/>
			<path id="svg_88" fill="#FFFFFF" stroke="#000000" stroke-miterlimit="10" d="M116.059,145c2.148,2.155,0.655,5.867,1,10
				c0.332,4,1.303,8.379,2,12c0.549,2.845,0.989,6.319,2,9c0.133,0.353-0.271,1.778,0,2c0.08,0.065,0.98-0.08,1,0
				c0.461,1.923,0.578,4.06,1,6c0.59,2.711,0.83,5.246,2,7c0.24,0.362,0.647,2.712,1,3c0.42,0.343,2.336,3.383,2,6
				c-2.773,0.709-2.387-2.806-3-4c-0.238-0.462-1.896-1.653-2-2c-0.722-2.382-0.049-3.146-1-6c-0.117-0.353-0.947-0.01-1-1
				c-0.021-0.38-0.341-4.461-1-5c-1.281-1.047-1.336-6.985-2-11c-0.015-0.087-0.959-0.217-1-1
				C116.714,163.466,115.148,151.414,116.059,145z"/>
			<path id="svg_89" fill="#FFFFFF" stroke="#000000" stroke-miterlimit="10" d="M44.059,146c3.96-0.992,1.04,2.737,1,4
				c-0.072,2.233,1.211,9.12-2,8C44.389,154.997,44.074,150.351,44.059,146z"/>
			<path id="svg_90" fill="#FFFFFF" stroke="#000000" stroke-miterlimit="10" d="M57.059,148c0.161-1.174,1.823-0.845,3-1
				c0.609,3.901,0.403,8.515,0,13c-0.144,1.591-0.838,1.712-1,3c0.042-0.333,1.585,0.53,1,1c-1.283,1.024-0.54,2.043-1,4
				c-0.198,0.838-0.882,0.985-1,2c-0.544,4.653,0.201,8.196-1,13c-0.183,0.729-0.963,0.837-1,1c-0.573,2.468-0.276,4.793-1,7
				c-0.061,0.181-0.823,0.29-1,1c-0.46,1.839-0.748,4.118-2,6c-0.419,0.627-0.432,3.26-3,3c-0.438-3.562,0.272-6.411,2-9
				c0.644-0.968,0.644-1.577,1-3c0.315-1.263,1.216-6.04,2-10c0.831-4.199,2.224-9.083,3-15c0.213-1.628-0.294-3.388,0-5
				c0.173-0.958,0.902-1.534,1-3c0.134-2.028-1.089-4.17,0-6C58.22,148.837,57.837,148.222,57.059,148z"/>
			<path id="svg_91" fill="#FFFFFF" stroke="#000000" stroke-miterlimit="10" d="M62.059,147c0.919,0.435,1.749,0.887,2,2
				c-0.087-0.387-1.544,0.563-1,1c0.066,0.054,0.991-0.06,1,0c0.839,6.157-0.531,14.131-1,20c-0.523,6.521-0.859,14.417-3,21
				c-0.111,0.341-0.949,0.017-1,1c-0.136,2.58-0.865,2.601-1,5c-0.075,1.312-0.521,4.885-3,4c-1.538-3.112,1.29-5.89,2-9
				c0.576-2.522,0.228-5.453,1-9c0.181-0.832,0.832-1.011,1-2c0.694-4.119,1.099-9.399,2-13c0.386-1.547-0.191-3.412,0-5
				C61.484,159.453,62.671,153.06,62.059,147z"/>
			<path id="svg_92" fill="#FFFFFF" stroke="#000000" stroke-miterlimit="10" d="M66.059,147c0.89,0.442,1.788,0.878,2,2
				c0.853,13.94-0.564,28.271-2,40c-0.196,1.599,0.369,3.438,0,5c-0.051,0.211-0.954,0.118-1,1c-0.098,1.856-1.32,5.603-3,7
				c-4.397-0.053-1.146-4.752-1-6c0.287-2.472,0.606-4.89,1-7c0.171-0.922,0.814-1.601,1-3c0.171-1.299-0.244-2.715,0-4
				c0.352-1.86,1.736-4.265,2-6c0.264-1.745-0.287-3.786,0-6c0.269-2.086,1.892-4.208,1-8c-0.193-0.819-0.981-0.99-1-2
				c-0.039-1.961,0.853-3.873,1-6C66.231,151.476,65.927,149.39,66.059,147z"/>
			<path id="svg_93" fill="#FFFFFF" stroke="#000000" stroke-miterlimit="10" d="M70.059,147c1.673,0.28,1.468,1.483,2,3
				c0.848,2.414,1.296,6.806,1,12c0.002-0.044-1.882,2.118-1,3c1.256,1.256,0.54,1.422,0,3c3.455,0.421,1.909-6.29,2-10
				c0.094-3.851-0.073-8.083,0-11c2.308,0.181,1.352,1.41,2,4c1.087,4.351,1.463,20.867,1,31c-0.014,0.278,0.187,1.847,0,2
				c-1.255,1.024,0.106,0.44,0,2c-0.106,1.538-0.891,3.632-1,5c-0.127,1.589,0.352,3.449,0,5c-0.045,0.194-0.955,0.13-1,1
				c-0.101,1.903,0.646,5.497-3,5c1.632-12.188,1.572-19.878,2-33c-3.856,2.447-1.503,9.06-2,15c-0.263,3.132-0.535,4.118-1,8
				c-0.036,0.299,0.205,1.831,0,2c-0.072,0.058-0.99-0.065-1,0c-0.537,3.188,1.059,7.528-2,9c-4.064,0.845-1.051-2.979-1-4
				c0.089-1.839-0.189-4.26,0-6c0.256-2.369,1.588-5.397,2-8c0.257-1.628-0.238-3.37,0-5c0.297-2.039,1.727-2.653,1-6
				c-0.176-0.81-1.023-0.999-1-2c-0.005,0.197,0.97-0.435,1-1c0.034-0.649,0.423-4.653,0-5c-1.309-1.071-0.026-0.286,0-1
				C70.316,157.851,68.708,151.918,70.059,147z"/>
			<path id="svg_94" fill="#FFFFFF" stroke="#000000" stroke-miterlimit="10" d="M100.059,147c1.162-0.163,1.777,0.222,2,1
				c-2.229,12.763-0.455,24.709,2,37c0.189,0.951,0.852,1.558,1,3c0.104,0.96-0.201,2.056,0,3c0.881,4.121,2.828,8.026,3,12
				c-4.065,2.06-1.715-3.948-3-5c-0.117-0.097-0.938,0.123-1,0c-0.174-0.362,0.291-1.763,0-2c-0.09-0.073-0.974,0.091-1,0
				c-0.774-2.595-0.385-5.978-1-9c-0.479-2.353-1.688-4.924-2-7c-1.514-10.181-0.176-18.95-1-30
				C100.23,149.838,99.9,148.177,100.059,147z"/>
			<path id="svg_95" fill="#FFFFFF" stroke="#000000" stroke-miterlimit="10" d="M104.059,147c4.227-0.231,1.051,3.328,1,5
				c-0.099,3.183,0.582,6.317,0,10c0.028-0.188-1.674,0.461-1,1c1.215,0.972,0.855,3.612,1,7c0.062,1.479,1.197,3.021,0,4
				c-2.062-1.658-0.688-4.704-1-7C103.453,162.554,102.837,153.403,104.059,147z"/>
			<path id="svg_96" fill="#FFFFFF" stroke="#000000" stroke-miterlimit="10" d="M96.059,154c1.898,1.442,0.901,5.519,1,8
				c0.107,2.793,0.885,4.5,0,6C94.012,166.341,94.544,157.026,96.059,154z"/>
			<path id="svg_97" fill="#FFFFFF" stroke="#000000" stroke-miterlimit="10" d="M120.059,158c0.381-1.903,1.271,0.638,1,2
				C120.677,161.903,119.785,159.36,120.059,158z"/>
			<path id="svg_98" fill="#FFFFFF" stroke="#000000" stroke-miterlimit="10" d="M46.059,161c1.614,0.979,2.301,2.668,1,4
				C45.701,164.69,46.228,162.496,46.059,161z"/>
			<path id="svg_99" fill="#FFFFFF" stroke="#000000" stroke-miterlimit="10" d="M42.059,164c0.75-0.433,1.631,3.483,1,4
				c-1.368,1.118-0.214,1.729-1,5c-0.053,0.218-0.954,0.113-1,1c-0.111,2.11-0.96,4.146-2,7c-1.934,5.306-5.051,10.51-7,15
				c-4.109-1.063-0.493-3.033,0-5c0.494-1.979,1.494-2.976,2-5c0.13-0.522-0.272-1.549,0-2c0.269-0.448,1.796-0.606,2-1
				c0.41-0.794-0.384-2.192,0-3c0.195-0.414,1.871-0.674,2-1c0.594-1.508,0.703-2.882,1-4C39.952,171.62,40.662,168.126,42.059,164z
				"/>
			<path id="svg_100" fill="#FFFFFF" stroke="#000000" stroke-miterlimit="10" d="M84.059,171c2.085,1.247,0.573,8.728,1,13
				c0.095,0.964,0.939,0.701,1,1c0.211,1.063-1,0.778-1,1c-0.007,5.349,0.003,10.546,0,17c-3.48,0.214-1.888-4.64-2-7
				C82.727,189.076,82.54,177.349,84.059,171z"/>
			<path id="svg_101" fill="#FFFFFF" stroke="#000000" stroke-miterlimit="10" d="M87.059,172c3.69-0.558,2.569,2.7,3,5
				c0.545,2.922,0.637,1.449,0,4c-0.494,1.979,0.688,3.63,1,6c0.289,2.178-0.172,5.092,0,7c0.344,3.817,3.104,7.126,0,9
				c-3.789,0.951-3.6-3.827-4-6c-0.14-0.753,1.252-1.04,1-2c-0.063-0.252-0.947-0.092-1-1c-0.168-2.912,0.344-6.149,0-10
				c-0.172-1.911-1.007-2.788-1-4c0,0.235,0.976-0.463,1-1C87.15,177.222,86.993,174.841,87.059,172z"/>
			<path id="svg_102" fill="#FFFFFF" stroke="#000000" stroke-miterlimit="10" d="M95.059,172c1.614-0.282,1.721,0.944,3,1
				c-0.061,11.06,3.576,18.423,4,29c-3.154-0.149-3.248-4.485-4-7c-0.488-1.629-0.594-2.272-1-4
				C96.036,186.672,95.441,178.646,95.059,172z"/>
			<path id="svg_103" fill="#FFFFFF" stroke="#000000" stroke-miterlimit="10" d="M92.059,173c2.321,1.836,1.031,4.888,2,9
				c0.196,0.838,0.896,0.983,1,2c0.23,2.222-0.326,4.712,0,7c0.586,4.108,2.782,8.056,2,12c-3.738-0.947-2.404-5.715-3-9
				c-0.041-0.224-1.199-0.007-1-1c0.049-0.243,1.168,0.002,1-1c-0.016-0.092-0.959-0.213-1-1c-0.064-1.265,0.271-2.769,0-4
				C92.624,185.009,91.352,178.074,92.059,173z"/>
			<path id="svg_104" fill="#FFFFFF" stroke="#000000" stroke-miterlimit="10" d="M105.059,177c0.65-2.819,1.16,2.303,1,3
				C105.594,182.008,104.18,180.806,105.059,177z"/>
			<path id="svg_105" fill="#FFFFFF" stroke="#000000" stroke-miterlimit="10" d="M85.059,19c-0.172-2.892-4.081-4.559,1-5
				c-2.181-1.82-1.82-6.181-4-8c0.122-2.545,1.455-3.878,4-4c-0.224,2.984,3.692,3.4,1,6c0.123,2.208,4.24,0.424,6,1
				c0.739,4.406-3.238,4.096-4,7c0.256,2.077,4.396,0.272,5,2c0.09,2.728-1.666,2.013,0,4c2.409,0.409,2.174-1.827,5-1
				c0.442,0.89,0.877,1.788,2,2c-0.554,1.78-0.515,4.153-2,5c0.959,3.042,5.978,2.025,5,7c-1.183,1.151-3.535,1.132-6,1
				c0-1.667,0-3.333,0-5c-2.265,0.737-2.188,3.812-5,4c0.312,1.357,2.502,0.829,4,1c0.168,2.502-1.537,3.13-3,4
				c0.248,1.257,1.988,1.008,2,0c2.965,2.07-1.428,5.162-3,6c0.16,1.172,1.822,0.843,3,1c-1.064,0.933-0.312,3.688-3,3
				c0.16,1.172,1.822,0.843,3,1c0.688,2.688-2.064,1.933-3,3c1.373,3.164,0.219,3.342,0,7c-4.764-1.877,0.09-7.865-6-9
				c-0.32-3.986-0.057-7.389,2-9c-0.558-2.443-3.87-2.131-3-6c1.185-1.152,3.534-1.132,6-1c-0.022-3.642-5.207-2.126-4-7
				c1.185-1.152,3.534-1.132,6-1c1.227-0.019-0.256-5.652-1-7c-1.757,0.91-1.83,3.504-3,5c-2.488-0.154-3.097,1.571-5,2
				c-0.12,2.88,0.545,6.546-1,8c-3.45-0.729-0.667-3.009,0-5c-0.484-3.766-0.29-4.234-2-8c1,0,2,0,3,0c-0.896-1.772-4.06-1.274-3-5
				c-0.506,0.327-2.292,1.029-2,2c0.019,0.063,1.969,1.166,2,1c-0.171,0.945-1.437,2.16-2,3c-0.673,1.003,0.017,2.421-2,2
				c0-2.667,0-5.333,0-8C81.931,17.377,82.176,17.172,85.059,19z"/>
			<path id="svg_106" fill="#FFFFFF" stroke="#000000" stroke-miterlimit="10" d="M78.059,18c0,2.667,0,5.333,0,8
				c2.017,0.421,1.327-0.997,2-2c0.563-0.84,1.829-2.055,2-3c-0.031,0.166-1.981-0.937-2-1c-0.292-0.971,1.494-1.673,2-2
				c-1.06,3.726,2.104,3.228,3,5c-1,0-2,0-3,0c1.71,3.766,1.516,4.234,2,8c-0.667,1.991-3.45,4.271,0,5c1.545-1.454,0.88-5.12,1-8
				c1.903-0.429,2.511-2.154,5-2c1.17-1.496,1.243-4.09,3-5c0.744,1.348,2.227,6.981,1,7c-2.466-0.132-4.815-0.152-6,1
				c-1.207,4.874,3.978,3.358,4,7c-2.466-0.132-4.815-0.152-6,1c-0.87,3.869,2.442,3.557,3,6c-2.057,1.611-2.32,5.014-2,9
				c6.09,1.135,1.236,7.123,6,9c0.219-3.658,1.373-3.836,0-7c0.936-1.067,3.688-0.312,3-3c-1.178-0.157-2.84,0.172-3-1
				c2.688,0.688,1.936-2.067,3-3c-1.178-0.157-2.84,0.172-3-1c1.572-0.838,5.965-3.93,3-6c-0.012,1.008-1.752,1.257-2,0
				c1.463-0.87,3.168-1.498,3-4c-1.498-0.171-3.688,0.357-4-1c2.812-0.188,2.735-3.263,5-4c0,1.667,0,3.333,0,5
				c2.465,0.132,4.817,0.151,6-1c0.978-4.975-4.041-3.958-5-7c1.485-0.847,1.446-3.22,2-5c-1.123-0.212-1.558-1.11-2-2
				c-2.826-0.827-2.591,1.409-5,1c-1.666-1.987,0.09-1.272,0-4c-0.604-1.728-4.744,0.077-5-2c0.762-2.904,4.739-2.594,4-7
				c-1.76-0.576-5.877,1.208-6-1c2.692-2.6-1.224-3.016-1-6c-2.542,0.122-3.875,1.455-4,4c2.18,1.819,1.819,6.18,4,8
				c-5.081,0.441-1.168,2.108-1,5C82.176,17.172,81.931,17.377,78.059,18z M96.059,13c-0.117,0.116-1.998-0.097-2,0
				c-0.08,2.418,1.447,2.31,3,5c0.227,0.776,0.026,1.972,1,2c-0.474-3.14,2.689-2.642,3-5c-1.222-0.113-2.369-0.299-2-2
				c1.506-3.159,5.06-4.278,5-9c-1.16-0.84-2.682-1.319-5-1c-0.091,3.736-1.121,2.85,0,6c-1.768,1.433-5.91-0.817-4,1
				C95.711,9.657,96.811,12.247,96.059,13z M115.059,7c1.219,0.113,2.367,0.299,2,2c-1.666,0-3.334,0-5,0
				c-2.396,4.327-4.646,10.64,3,11c1.719-1.19-0.69-2.85,0-4c0.305-0.507,2.352,0.199,2-1c-1.222-0.113-2.369-0.299-2-2
				c3.729,0.525,2.318-2.387,3-4c0.562-1.329,3.553-1.335,3-3c-1.648-0.016-0.561-2.774-2-3C118.152,4.762,115.377,4.652,115.059,7z
				 M63.059,23c-0.261,3.26,1.187,4.812,4,5c-0.581-3.247,0.681-4.652,1-7C64.98,20.255,66.136,23.745,63.059,23z M67.059,19
				c2.526,3.019,4.466,0.405,8,2c2.217-5.25-2.009-5.541-1-12c-1.334,0-2.667,0-4,0c-0.827,2.826,1.409,2.59,1,5
				c-3.907-3.124-0.179,3.27-2,3c-1.123-0.212-1.557-1.11-2-2c-0.011-3.302,4.877-9.721-1-10c-1.757,0.91-1.83,3.504-3,5
				c1.321,0.011,0.914,1.752,2,2c1.165,0.168,1.085,1.581,1,3c-3.818-0.818-3.872,2.128-5,4c1.904,0.429,2.512,2.154,5,2
				C66.282,20.224,66.085,19.027,67.059,19z M76.059,14c2.826-0.827,2.59,1.409,5,1c0.329-2.338,1.202-4.131,2-6
				c-1.891,0.224-2.207-1.127-4-1C77.612,9.554,76.955,11.896,76.059,14z M47.059,15c-2.402,2.401,3.28,2.589,3,1
				C50.07,16.069,46.673,15.384,47.059,15z M60.059,20c-0.057,0.61-0.15,1.184-1,1c-0.438-3.438,0.395-5.605,1-8
				c-2.323-1.976-2.677-1.976-5,0c-0.521-1.48-1.48-2.521-2-4c-3.406-0.072-3.726,2.941-5,5c1.463,0.869,3.169,1.497,3,4
				c-1.753,0.914-3.475,1.859-3,5c0.096,2.57,3.903,1.43,4,4c-1.003-0.003-1.19,0.81-2,1c-0.78-0.221-1.164-0.837-1-2
				c-2.28,0.279-3.76-0.241-4-2c-0.723-3.057,1.022-3.645,1-6c-3.06-0.726-2.942,1.725-6,1c-0.096-1.572,0.134-3.467-2-3
				c-1.322,0.011-0.915,1.752-2,2c-0.729,2.728,1.986,2.013,2,4c-1.469,2.358-2.111,1.86-1,5c2.348-0.319,3.753-1.58,7-1
				c0.298,1.537,2.166,2.108,3,3c0.338,0.361-0.32,1.618,0,2c0.246,0.294,1.631-0.175,2,0c0.606,0.287,0.806,2.196,2,2
				c1.647-2.352,0.314-7.686,4-8c-1.686,3.336,0.635,3.414,1,7c-1.003,0.003-1.19-0.81-2-1c-0.114,1.22-0.299,2.367-2,2
				c-0.224,0.776-0.028,1.972-1,2c-0.044,1.376,0.47,2.195,1,3c1.875,0.239-0.568,1.646,1,2c0.24-1.759,1.72-2.28,4-2
				c1.922-2.495-1.527-4.109,1-6c-0.542,3.541,3.541,2.458,3,6c-1.377,0.043-2.196-0.471-3-1c0.187,2.812,1.739,4.26,5,4
				c-1.426-3.588,3.134-2.077,4-3c0.66-0.704-0.559-3.201,1-3c0.274,0.908,3.725,3.358,4,1c-1.009-0.012-1.259-1.753,0-2
				c1.676-0.114,0.418,1.949,1,3c0.736,1.333,3.116,1.124,3,3c-1.891,0.224-2.207-1.127-4-1c-1.427,4.426,3.384,2.616,3,6
				c-1.44-1.119-2.44-1.078-3,1c0.778,0.221,1.162,0.837,1,2c4.325-0.527-0.476,1.955,0,3c0.385,0.847,2.869,0.792,3,2
				c-1.796-0.129-2.34,0.993-2,3c1.89-0.224,2.206,1.127,4,1c1.162-3.121,2.852-6.492,6-6c0-1.333,0-2.667,0-4
				c-2.484,0.15-4.151-0.517-5-2c1.005-1.995,4.421-1.579,4-5c-1.174-4.494-8.29-3.044-10-7c0.095-1.572-0.135-3.467,2-3
				c0,1.333,0,2.667,0,4c3.198,1.592,5.671-0.129,6-4c-1.065-1.936-4.606-1.394-6-3c2.34-0.257,0.576-4.394,0-5c-1,0-2,0-3,0
				c-2.363,2.347,0.162,4.913,0,8c-6.44-2.107-3.565,5.103-7,6c-1.152-1.182-1.132-3.536-1-6c-4.195,1.068-2.968-2.174-4-4
				c-0.22-0.389-1.693-0.59-2-1c-0.73-0.973,0.115-1.361-1-2c0.166,0.095-0.34,2.517-1,2c-1.76-0.241-2.28-1.721-2-4
				C55.015,23.093,63.278,21.783,60.059,20z M103.059,10c0.574,1.758-1.209,5.875,1,6c0.678-2.323,3.322-2.677,4-5
				c-1.428-0.24-1.688-1.647-3-2C104.836,9.779,104.221,10.163,103.059,10z M124.059,16c-4.228-0.066,0.144-1.649,0-3
				c-0.02-0.172-2.797-2.66-4-2c-1.877,1.907,0.594,1.809,0,5C121.92,15.043,123.398,18.995,124.059,16z M133.059,23
				c0.738-0.641,2.664-1.344,1-2c-0.014,1.008-1.752,1.257-2,0c1.78-2.886,6.436-2.9,7-7c-0.689-1.975-2.668-2.666-5-3
				c-1.285,1.313-1.285,3.686,0,5c-1.904,0.429-2.514,2.154-5,2c0.409,2.409-1.826,2.173-1,5c-2.062,0.601-3.787,1.546-3,5
				C127.718,27.619,131.76,24.126,133.059,23z M102.059,20c1.729,2.27-0.386,8.385,3,9c0.221-0.779,0.836-1.163,2-1
				c-1.156-5.715,4.365-5.854,2-10c-1.742,0.075-3.107-0.224-4-1C104.498,18.44,103.498,19.44,102.059,20z M118.059,21
				c1.121,0.102,1.56-1.454,2,0c-0.091,1.576-2.552,0.783-2,3c3.155,0.489,3.531-1.802,7-1c-0.043-1.377,0.471-2.196,1-3
				c-2.093-0.576-2.854-2.479-6-2C120.93,20.054,114.969,19.996,118.059,21z M136.059,24c3.144,0.474,4.086-1.248,5-3
				c-1.781,0.598-4.149-2.932-5,0C137.613,21.261,136.752,23.193,136.059,24z M148.059,27c-1.353-0.315-1.91-1.424-4-1
				c-1.688,3.646-4.867,5.799-8,8c0.439,2.833,4.062,8.761,6,4c-0.773-0.224-1.974-0.028-2-1c2.199-2.132,5.818-2.847,6-7
				c1.693,0.339,2.51-1.077,4-2c1.336-0.828,4.531-1.187,4-4c-0.852-1.483-2.519-2.15-5-2C148.51,23.453,150.227,27.168,148.059,27z
				 M25.059,27c1.727,1.605,6.182,0.484,7,3c-3.314,0.977,1.116,1.977,1,3c-2.613,0.279-5.005,0.337-4-3
				c-5.716,0.052-1.374,7.074,2,4c-0.557,2.037,1.69,1.888,2,3c-0.07-0.25-1.978,1.953,0,2c0.26-1.407,2.193-1.14,3-2
				c-0.51-2.597,0.687-5.796,0-8c-0.053-0.171-1.824-0.766-2-1c-0.732-0.976-0.086-2.249-1-3c-0.573-0.471-2.318,0.323-3,0
				c-1.172-0.555-1.555-3.466-4-2C26.282,24.891,24.931,25.206,25.059,27L25.059,27z M114.059,46c3.78,1.448,1.918-2.748,5-2
				c0.318-2.319-0.16-3.84-1-5c-2.787-0.375-6.086,3.809-8,1c4.068,0.737,3.381-3.287,5-5c1.321,0.011,0.914,1.752,2,2
				c1.625-2.051,0.916-3.349,0-5c-0.738-1.327-3.629-1.279-3-4c0.012-1.987,2.729-1.272,2-4c-1.279-1.368-4.723-1.368-6,0
				c0.739,1.97-0.117,4.465,1,6c0.568,0.783,3.437,0.136,3,2c-0.348,1.748-3.021,6.182-5,3c2.185,0.181,3.185-0.819,3-3
				c-0.279-2.055-2.672-1.996-4-3c-1.768,1.16-0.308,4.171-1,6c-0.432,1.137-2.133,0.708-2,3c0.072,1.269,1.578,2.448,2,4
				c-1.06,2.104-2.091,1.708-2,4c0.049,1.256,1.334,1.412,1,3c-0.373,1.766-2.502,1.683-2,4c2.614,1.051,3.271,4.063,3,8
				c-0.773,0.224-1.974,0.027-2,1c3.979,0.73,4.021,0.73,8,0c-0.019-6.017,6.02-5.983,6-12c-1.893,0.224-2.207-1.127-4-1
				c-0.19,4.474-1.438,7.895-4,10c-1.178-0.157-2.84,0.172-3-1c4.211-0.417,2.26-2.09,1-3c1.262-0.52,6.072-2.438,3-4
				c-0.016,1.31-2.771,1.274-3,0c2.935-0.068,3.715-2.286,5-4c-1.178-0.157-2.84,0.172-3-1c2.76-0.239,2.281-3.718,4-5
				C115.885,43.826,113.646,43.59,114.059,46z M119.059,30c2.502,0.169,3.131-1.537,4-3c-1.479-0.521-2.521-1.48-4-2
				C117.773,26.313,117.773,28.686,119.059,30z M139.059,29c0-1,0-2,0-3c-1.002,0-2,0-3,0C135.877,28.181,136.877,29.181,139.059,29
				z M38.059,32c1.166,1.5,2.887,2.445,3,5c-1.486,1.181-4.469,0.865-4,4c0.147,2.186,2.519,2.147,5,2c0.552-1.781,0.514-4.153,2-5
				c1.439,0.56,2.439,1.56,3,3c-8.41-0.356,4.315,4.754-2,5c-0.422,3.421,2.994,3.005,4,5c-0.667,0-1.334,0-2,0
				c-0.223,2.984,3.692,3.4,1,6c4.251,0.082,5.427,3.239,6,7c2.655,1.06,5.689,0.749,6-3c-3.024-0.446-5.855-1.24-6-4
				c-0.057-1.074-0.802-0.545-1-1c-1.398-3.207-0.422-3.377,0-6c-0.31-2.358-3.473-1.861-3-5c-0.726-3.059,1.725-2.941,1-6
				c-3.582,0.581-3.041-2.96-3-6c-1.966,0.299-1.984-1.351-3-2c-0.224,0.776-0.028,1.972-1,2c0.537-3.538-0.848-5.152-3-6
				C40.749,29.358,37.585,28.86,38.059,32z M132.059,35c0.221-0.779,0.836-1.163,2-1c0.131-2.465,0.151-4.818-1-6c-1.002,0-2,0-3,0
				C127.932,30.244,129.346,34.588,132.059,35z M148.059,35c2.274-0.725,5.107-0.892,7-2C154.71,27.054,147.423,31.073,148.059,35z
				 M15.059,33c-1.208,6.439,3.975,0.694,4,5c3.536,0.604,5.79-5.181,2-6C19.656,34.473,17.613,33.764,15.059,33z M126.059,42
				c1.354-2.313,4.021-3.313,3-8c-1.666,0-3.334,0-5,0c-3.123,2.211-0.572,10.096-4,12c-0.744,3.078,2.744,1.921,2,5
				c0.744,3.078-2.744,1.921-2,5c2.383,1.616,5.248,2.751,6,6c-0.229,2.576-5.16,4.806-1,6c0.896-1.772,4.062-1.274,3-5
				c2.895-0.442,4.561-2.108,5-5c-1.482-1.182-4.469-0.866-4-4c3.246-0.753,6.34-1.659,6-6c-0.69-0.783-5.58-2.226-6,0
				c2.442,0.638,0.151,4.675-1,5c1.604-3.936-4.315-0.348-4-3c2.185,0.181,3.185-0.819,3-3c-0.014-1.322-1.752-0.914-2-2
				C127.795,44.474,131.214,39.493,126.059,42L126.059,42z M162.059,36c-2.064-2.759-5.562-1.894-8,0c1.182,5.513-1.724,6.943-2,11
				c4.168,0.5,4.799-2.534,5-6c1.317,0.691,2.485-1.215,4-2c1.438-0.747,3.244,0.343,4-1c0.76-1.35,0.869-2.504-2-4
				C162.833,34.776,163.029,35.972,162.059,36z M30.059,55c-0.057,0.61-0.15,1.184-1,1c-1.988-1.666-1.272,0.09-4,0
				c-0.698,3.698,1.582,4.417,5,4c2.452-1.332-1.802-3.019,1-4c1.181,0.485,2.266,1.066,3,2c-1.123,0.211-1.557,1.109-2,2
				c1.997,1.247,2.699,0.513,4,2c-0.365-0.417-1.258,1.264-1,2c0.28,0.801,2.948,0.827,3,2c-4.473,1.59-4.483-2.616-6-3
				c-1.005-0.254-1.648,1.466-2,2c3.223,1.442,7.176,2.157,7,7c4.214,0.383,5.388-2.904,6-5c0.281-0.963-1.064-1.605-1-3
				c0.056-1.237,1.361-1.436,1-3c0.04,0.172-2.681-2.203-3-4c-0.139-0.776,0.364-2.314,0-3c-0.74-1.394-3.797-1.678-3-3
				c1.319-6.32-2.796-7.205-4-11c-1.891-0.225-2.207,1.127-4,1c-1.005-1.329-0.946-3.721-3-4c-0.261,1.556-2.194,0.693-3,0
				c0.119,2.88-0.547,6.546,1,8c1.89,0.224,2.206-1.127,4-1c-1.006,3.744,1.823,2.271,2,4c0.084,0.831-1.75,1.998-1,3
				c0.498,0.665,3.359-0.562,3,1C31.968,53.576,29.507,52.783,30.059,55z M130.059,38c-0.396,1.04,0.959,1.702,1,2
				c0.201,1.492-0.381,3.693,1,4c1.006-1.995,4.42-1.578,4-5c-1.906-0.426-1.811-2.857-5-2
				C131.616,37.845,130.104,37.877,130.059,38z M146.059,38c-0.021,2.355,1.726,2.943,1,6c3.978,0.309,5.412-1.921,5-6
				C149.721,37.691,147.927,36.042,146.059,38z M15.059,41c0.648,0.999,0.316,4.027,3,3c0.481-3.482-2.507-3.494-4-5
				c0.555,0.003,1.135-0.81,0-1C12.422,39.699,13.97,39.325,15.059,41z M71.059,44c-0.11-2.488-1.874-3.096,0-5
				c-1.667,0-3.334,0-5,0C65.349,43.042,67.017,44.708,71.059,44z M98.059,51c2.826,0.826,2.59-1.41,5-1c1.053-3.72-3.373-1.961-4-4
				c0.824-2.841,5.77-1.566,5-6c-1.16-0.84-2.682-1.319-5-1C97.807,44.186,97.116,44.925,98.059,51z M53.059,47c1.666,0,3.333,0,5,0
				c0.022-2.356-1.723-2.944-1-6C53.857,41.132,52.658,43.267,53.059,47z M160.059,46c4.062,0.393,6.967-0.366,7-4
				C163.568,40.184,161.178,42.754,160.059,46z M65.059,50c1.534-0.39,0.146-1.2-1,0c2.033-3.957,0.314-8.547-5-8
				c-0.473,3.139,2.69,2.642,3,5c-1.721-0.054-2.564,0.77-3,2c0.89,0.586,5.703,2.101,3,3c-2.091-0.576-2.855-2.479-6-2
				c0.022,2.355-1.723,2.943-1,6c2.09,0.576,2.854,2.479,6,2c3.345-2.092-3.856-3.759-1-5c1.181,1.151,3.535,1.132,6,1
				C66.282,52.109,64.931,51.793,65.059,50z M140.059,59c4.791,0.086,5.045-8.441,10-5c-0.021-2.356,1.726-2.944,1-6
				c-1.893,0.224-2.207-1.127-4-1c1.147,4.848-4.264,10.258-6,6c1.719,0.054,2.562-0.77,3-2c-1.178-0.157-2.84,0.172-3-1
				c2.004-1.662,4.647-2.686,5-6c-1.123-0.212-1.558-1.11-2-2c-4.557,0.443-6.518,3.483-6,9c-0.561,1.44-1.561,2.44-3,3
				c1.31,2.359,0.422,6.91,2,9c4.328,1.596,6.623-3.955,8-2c-0.914,1.752-1.856,3.474-5,3c-0.553,3.114-0.814,6.517-2,9
				c4.961,0.962,5.334-2.667,9-3c1.146-4.146-2.104-3.896-2-7c3.647,0.649,5.326-0.674,7-2c-0.439-2.892-2.105-4.559-5-5
				C145.844,57.519,142.848,62.364,140.059,59z M15.059,67c3.082,1.062,7.34-0.383,12,1c1.867-1.778-0.813-2.542,0-6
				c-3.757,0.757-3.384-2.617-5-4c-0.044-1.377,0.47-2.196,1-3c-1.764-0.904-3.097-2.237-4-4c0.017-3.684-2.914-4.42-5-6
				c-0.111,1.889-3.307,0.693-3,3c0.555-0.003,1.135,0.81,0,1c-0.745,3.078,2.744,1.921,2,5c-4.042,0.271-0.234,0.849,0,2
				c-0.015-0.075-1.108,1.001-1,2c0.218,2.021,3.093,5.171,1,5c-2.089-0.194-5.815-6.862-2-4c-0.042-3.083-5.306-3.577-7-2
				c-0.745,3.078,2.744,1.921,2,5c-2.152,0.848-3.538,2.462-3,6c1.181,1.151,3.535,1.132,6,1c-0.963,3.629,4.493,0.839,4,4
				c-3.06,0.725-2.941-1.726-6-1c-3.275,3.397-0.963,6.79,4,7c0.826-2.827-1.41-2.591-1-5c2.442,2.095,2.13,1.429,6,1
				c0.166-3.945-0.376-4.486-3-7c-1.045-1.001-8.515,0.301-4-4c-0.973,2.754,5.588,2.922,5,2c-1.123-0.212-1.557-1.11-2-2
				c3.703-0.123,2.515-1.456,2-4c5.33,1.059,0.249-2.105,3-3c1.887-0.441,1.209,2.414,2,3c1.173,0.87,2.462-0.591,3,1
				c-0.014-0.038-1.776,1.043-1,2c1.177,0.156,2.838-0.172,3,1C20.211,63.136,15.155,61.817,15.059,67z M39.059,50
				c1.777,0.888,2.541,2.792,6,2c-0.251-2.716-1.552-3.879-2-5c-0.299-0.747,0.031-1.997-1-2C41.16,46.768,39.644,47.918,39.059,50z
				 M22.059,48c-0.827,2.826,1.409,2.59,1,5c1.452-0.547,5.168,1.168,5-1c-3.357-0.914-0.496-1.859-1-5
				C24.231,46.173,24.468,48.409,22.059,48z M72.059,55c1.657-1.057-0.211-2.22-1-4c-0.696-1.569,0.257-4.992-3-4
				C65.323,50.464,70.245,52.956,72.059,55z M168.059,51c0.185-2.182-0.815-3.182-3-3C164.877,50.181,165.877,51.181,168.059,51z
				 M154.059,64c2.486,0.154,3.098-1.571,5-2c-0.416-5.121,7.485-6.001,4-11c-5.936-1.601-2.063,6.6-8,5
				c1.643,6.639-3.27,6.731-4,11c-0.394,3.683,6.739,7.857,7,2c-0.016-1.651-2.771-0.56-3-2c1.948,0.473,5.113-2.691,3-3
				C158.771,65.622,153.343,65.622,154.059,64z M43.059,58c1.313,1.02,3.686,0.98,5,2c-0.777-2.224-0.578-5.423-3-6
				C44.538,55.479,43.578,56.52,43.059,58z M81.059,55c0,2.667,0,5.333,0,8c3.213-0.88,1.37,3.296,4,3c-0.056-1.721,0.769-2.564,2-3
				c-0.854,3.188,0.869,3.795,2,5c-1.428,0.239-1.688,1.646-3,2c-0.689-1.975-2.667-2.666-5-3c0.279-2.28-0.241-3.759-2-4
				c-3.474,2.52-1.478,7.008,1,9c-1.715,1.285-3.933,2.067-4,5c1.014-0.265,0.656,0.568,1,1c1.443,1.815,4.491,0.955,5,3
				c-2.753,0.58-4.177,2.489-7,3c0.034,3.965,3.859,4.141,6,6c-0.181,2.82-4.753,1.247-4,5c0.299,2.7,4.206,1.793,5,4
				c-0.315,1.352-1.424,1.91-1,4c3.22,2.298,2.272,6,3,10c0.235,1.295,0.859,1.396,1,3c0.146,1.677-1.742,1.575,0,3
				c0.835,0.683-0.861,4.306,1,4c0.98-5.54,1.652-12.621,0-18c3.131,0.464,4.465-0.87,4-4c-0.341-0.96-1.324-1.386-2-2
				c-0.002-0.002-1.185-1.095-1-1c-0.951-0.492-5.208,1.159-4-2c3.552,0.776,3.634,0.133,8,1c-0.41-2.41,1.826-2.174,1-5
				c-1.738-2.262-7.073-0.928-8-4c3.656-0.218,3.835-1.374,7,0c0.484-1.182,1.064-2.267,2-3c0.385-3.384-4.428-1.574-3-6
				c1.74,0.075,3.109-0.224,4-1c1.039-4.707-2.306-5.029-4-7c1.209-0.212,0.614-1.11,0-2c2.635,0.301,3.281-1.385,3-4
				c-0.697-2.636-4.553-2.115-5-5c0.698-3.079,0.698-1.922,0-5C85.226,53.957,83.891,53.957,81.059,55z M105.059,93
				c-0.607-0.057-1.186-0.15-1-1c0.666,0,1.334,0,2,0c0-1.667,0-3.333,0-5c-1.123-0.212-1.558-1.11-2-2
				c-2.494-1.922-4.106,1.526-6-1c2.812-0.188,4.26-1.74,4-5c-1.178-0.157-2.84,0.172-3-1c3.063-0.652,5.303-4.261,2-6
				c-0.012,1.008-1.752,1.257-2,0c1.256-0.411,2.043-1.29,2-3c-4.479,0.076,0.607-3.706-1-7c1.894,0.224,2.207-1.127,4-1
				c0.647-3.649-0.674-5.327-2-7c-3.188-0.594-3.094,1.876-5,0c-1.633,3.697-0.336,10.357-1,15c-0.015,0.093-1.834-0.072-2,0
				c-0.002,3.336,3.252,3.414,3,7c-1.561,2.295,0.627,2.3-1,4c-2.021,2.11-0.972,7.521-2,11c5.653,1.322,4.965-3.7,8-5
				c0.021,2.355-1.724,2.943-1,6C102.387,91.854,104.777,95.363,105.059,93z M76.059,71c-3.585-0.615-1.664-6.73-1-9
				c-4.67,1.003-5.59-1.744-5-6c-1.667,0-3.334,0-5,0c-1.389,1.278-0.613,4.721-2,6c1.479,1.158,2.52,1.158,4,0
				c-1.078,2.555,4.305,3.5,1,5c-1.244,0.491-0.583-1.728-1-2c-1.327-0.865-4.241,0.631-6,0c-1.152,1.182-1.132,3.535-1,6
				c3.056-0.723,3.644,1.022,6,1c1.077-2.555-4.306-3.5-1-5c0.778,0.221,1.162,0.837,1,2c1.496,0.17,3.69-0.357,4,1
				c-0.934,1.067-3.689,0.311-3,3c-0.307,2.306,2.889,1.111,3,3c-1.76,0.241-2.28,1.72-2,4c6.652-0.403-0.897,3.389,2,5
				c1.333,0,2.666,0,4,0c-2.11-4.205,5.86-3.346,3-5C73.052,82.794,73.584,72.634,76.059,71z M114.059,64
				c-1.893-0.225-2.207,1.127-4,1c-0.271,1.885,1.188,2.212,1,4c-0.182,1.724-2.062,2.111-2,4c0.084,2.43,1.66,4.005,2,7
				c4.614,1.64,5.393-0.488,7-4c-1.722-0.395-2.562,1.484-3,0c1.11-0.983,4.909-4.297,2-6c-0.016,1.31-2.771,1.274-3,0
				c4.41,1.41,0.019-5.984,3-6c0.484,1.181,1.064,2.267,2,3c1.67-1.662,4.049-2.618,4-6c-2.093-0.576-2.854-2.479-6-2
				C115.574,60.183,115.502,62.777,114.059,64z M159.059,67c2.123,2.004,4.457-1.42,7-2c0.826-2.827-1.41-2.591-1-5
				c-1.334,0-2.666,0-4,0C161.965,64.012,161.757,64.851,159.059,67z M53.059,87c0.473-3.14-2.692-2.642-3-5
				c0.564-3.622-2.968-8.289,0-11c0.778,0.221,1.162,0.837,1,2c1.177,0.156,2.838-0.172,3,1c-0.014,1.987-2.729,1.271-2,4
				c1.177,0.156,2.838-0.172,3,1c-1.257,0.41-2.044,1.29-2,3c5.174-0.638,1.489,2.07,2,5c1.452,0.547,5.168-1.169,5,1
				c-1.257,0.41-2.044,1.29-2,3c0.201,1.435,1.697,1.675,2,3c0.174,0.766-0.389,2.331,0,3c0.464,0.799,1.843-0.39,2,1
				c0.146,1.3-1.773,1.949-1,4c1.181,0.485,2.266,1.066,3,2c-4.875,1.208-3.359-3.976-7-4c-1.152,1.182-1.132,3.535-1,6
				c2.003,1.663,7.416-0.084,9,2c-0.934,1.067-3.689,0.312-3,3c0.147,2.187,2.519,2.147,5,2c-0.806,2.157,1.368,3.667,2,6
				c0.663,2.447-0.827,5.806,2,7c1.718-2.661-0.335-8.957-1-10c-1.824-2.862,0.66-2.646,0-6c-0.365-1.856-3.519-3.66-2-6
				c-2.948-1.053-3.477-4.524-5-7c1.341-0.658,1.862-2.138,2-4c-0.899-1.768-2.415-2.919-3-5c1.091-5.425-2.381-6.287-3-10
				c2.106-5.226-2.554-5.809-3-11c-1.743-0.075-3.111,0.223-4,1c2.203-2.112-1.284-2.956-1-6c-1.667,0-3.334,0-5,0
				c-2.326,3.63-1.61,5.443,1,8c-3.118,1.216-5.961,2.705-5,8c1.785,1.214,5.817,0.182,7,2c-2.04,0.293-1.961,2.706-4,3
				c0.002-0.556-0.811-1.136-1,0C46.929,84.259,48.326,90.754,53.059,87z M103.059,72c4.101,0.097,4.543-3.458,6-6
				c-3.99,0.988-3.012-2.989-7-2C102.662,66.395,103.495,68.562,103.059,72z M126.059,69c0.547,1.453-1.168,5.168,1,5
				c-0.188-1.71,2.047-0.375,3-1c0.881-0.579,0.769-2.724,2-3c1.313,1.283,3.688,1.283,5,0c0.412-4.079-1.021-6.309-5-6
				C130.873,66.482,130.998,70.274,126.059,69z M61.059,117c0.988-3.989-2.989-3.011-2-7c-3.044-0.957-4.023-3.978-9-3
				c0.181-2.183-0.819-3.182-3-3c-0.407,1.927-3.877,0.79-3,4c1.331,3.002,3.918,4.748,9,4c-0.076,1.742,0.223,3.11,1,4
				c4.35-0.685,5.535,1.798,7,4c1.465,2.2-0.12,7.451,3,8C65.444,125.372,63.002,119.47,61.059,117z M44.059,96
				c-1.182,4.514,4.431,2.235,3,7c2.728-0.091,2.012,1.666,4,0c0.095,1.571-0.135,3.467,2,3c0-2.333,0-4.667,0-7
				c-4.071,0.07-4.305-3.696-4-8c-4.781-0.554-6.152-4.515-6-10c-1.138-0.516-2.326-1.026-3-2c-0.64-0.924-0.207-3.021-1-4
				c-0.335-0.413-2.573-0.673-3-1c-1.769-1.353-1.897-3.896-3-5c-0.667-0.667-1.854-0.813-3-1c-1.327,1.673-2.649,3.351-2,7
				c0.614,1.386,3.849,0.15,4,2c-2.203,0.797-3.993,2.007-4,5c0.411,2.712,4.755,4.126,7,2c0.563-2.658-4.114-5.092-1-7
				c1.735-0.466,0.341,2.408,1,3c0.911,0.82,4.132-0.849,4,1c-0.427,1.907-2.857,1.809-2,5c1.862,0.956,3.341-2.995,4,0
				c-0.607,1.727-4.744-0.077-5,2c1.219,0.113,2.367,0.299,2,2c1.496,0.17,3.69-0.357,4,1c-1.257,0.41-2.044,1.29-2,3
				C42.337,93.72,43.817,94.241,44.059,96z M121.059,78c0.887-1.778,2.791-2.542,2-6c-1.002-1.332-1.646-3.019-3-4
				C119.518,69.652,117.711,75.778,121.059,78z M19.059,74c2.355-0.022,2.943,1.722,6,1c-0.669-3.87-0.003-3.558-1-6
				C20.593,68.868,18.252,69.861,19.059,74z M156.059,74c-0.836,0.643-1.285,1.269-2,2c-0.381,3.379,1.732,4.267,3,6
				c0.574-1.758-1.209-5.875,1-6c2.521,2.4,5.713-0.163,7-2c-0.123-2.545-1.457-3.878-4-4C158.943,71.442,157.316,73.032,156.059,74
				z M141.059,75c-1.926,2.302-1.977,6.93-3,8c-2.115,2.207,0.146,2.625,0,5c-1.762,0.905-1.648,3.681-4,4
				c0.607,2.391-1.256,7.255,1,8c0.11-1.889,3.31-0.694,3-3c-1.722,0.053-2.562-0.77-3-2c3.578,0.817,4.965-2.128,3-4
				c3.26,0.26,4.812-1.188,5-4c-0.773-0.224-1.974-0.028-2-1c2.438-0.565,5.146-0.856,5-4c-1.781-0.598-4.149,2.931-5,0
				c4.15,0.284,4.707-3.486,7-5c1.213-0.802,2.719-0.351,4-1c0.748-3.749-1.127-4.874-4-5C146.674,73.283,145.777,76.053,141.059,75
				z M66.059,81c-0.172-2.829,0.86-6.861-2-7C61.29,75.91,61.544,81.128,66.059,81z M132.059,81c4.06,0.391,5.781-1.552,5-6
				c-1.893,0.224-2.207-1.127-4-1C131.682,75.289,132.068,78.343,132.059,81z M106.059,82c3.146-1.533,2.244-7.398-2-7
				C104.785,77.271,102.256,82.801,106.059,82z M125.059,84c0,0.667,0,1.333,0,2c1.494,3.004,4.48-0.736,4-3
				C127.166,82.775,126.852,84.127,125.059,84z M129.059,82c0.879-3.213-3.297-1.371-3-4c2.557-0.112,3.5-1.833,5-3
				c-1.666,0-3.334,0-5,0c-0.576,2.091-2.479,2.854-2,6C126.415,82.468,125.919,83.11,129.059,82z M15.059,84
				c3.139,1.11,2.641,0.468,5-1c-1.328,4.661,2.227,4.439,4,6c-1.123,0.211-1.557,1.109-2,2c2.676,1.275,4.753,1.595,3,5
				c1.762,1.882,3.096-1.367,4,2c-1.721-0.054-2.564,0.77-3,2c1.16,0.839,2.681,1.318,5,1c0.38,0.723-0.477,2.346,0,3
				c0.197,0.271,1.667-0.15,2,0c0.219,0.099,0.779,1.771,1,2c0.831,0.862,1.989,1.323,2,3c-2.348-0.319-3.754-1.58-7-1
				c0.052,7.117,8.41,4.396,13,3c0.826-2.827-1.41-2.591-1-5c-4.084-0.917-6.835-3.165-6-9c-3.658-0.343-4.577-3.424-6-6
				c0.776-0.224,1.972-0.028,2-1c-1.289-1.436-4.254-4.005-5-5c-0.732-0.977-0.06-2.269-1-3c-0.624-0.485-2.302,0.388-3,0
				c-0.586-2.082-2.102-3.232-3-5c-3.191-0.594-3.094,1.876-5,0C14.069,79.656,13.681,82.711,15.059,84L15.059,84z M146.059,87
				c1.666,0,3.334,0,5,0c-0.48-3.15,3.068-2.264,2-6c-1.312-1.02-3.687-0.98-5-2C147.109,81.067,148.602,84.562,146.059,87z
				 M114.059,88c-2.931,0.07-5.64,0.362-5,4c3.06,0.722,3.646-1.022,6-1c1.42,3.073,0.447,4.497-1,7c3.647,0.649,5.326-0.674,7-2
				c0.153-2.488-1.572-3.096-2-5c-1.914-0.421-4.306-0.362-4-3c1.989,2.005,4.76-0.315,7-1c0.86-4.528-1.104-6.229-4-7
				C117.77,83.711,116.928,86.869,114.059,88z M108.059,84c-0.474,4.532,4.678,2.728,7,2c-0.468-1.913,3.082-4.305-1-4
				C114.914,85.781,109.581,85.539,108.059,84z M68.059,91c-0.172-2.829,0.86-6.861-2-7C63.932,86.244,65.345,90.588,68.059,91z
				 M130.059,85c-0.928,0.831-3.504,6.929-2,7c1.01-1.657,4.248-1.086,6-2c-0.225-1.891,1.127-2.207,1-4
				c-1.123-0.212-1.558-1.11-2-2C131.755,84.038,130.768,84.364,130.059,85z M73.059,91c-2.976,0.087-2.676,5.962,1,5
				c0.288-4.538,1.466-5.99-1-9c-1.334,0-2.667,0-4,0C68.006,90.719,72.431,88.96,73.059,91z M16.059,90
				c0.034,2.699,3.859,6.718,6,4c-3.883,0.216-1.298-6.036-5-6C16.834,88.776,17.031,89.972,16.059,90z M37.059,95
				c1.982-2.188-1.273-4.182-2-5c-0.656-0.739,0.116-2.737-2-2C30.565,90.992,33.724,94.738,37.059,95z M125.059,92
				c-0.225-1.891,1.127-2.207,1-4C122.646,87.247,122.156,91.82,125.059,92z M141.059,97c3.815,0.484,6.383-0.284,8-2
				c0.687-4.351-1.799-5.536-4-7C144.834,92.108,140.645,92.254,141.059,97z M57.059,98c0.844-4.178-1.944-4.723-2-8
				c-0.057-0.611-0.15-1.184-1-1C51.365,90.718,50.191,100.148,57.059,98z M93.059,102c1.365,5.089,0.506,11.815,0,15
				c-0.674,4.229-1.015,8.865,2,11c-0.891-9.558,1.318-16.013,2-24c3.246,0.58,4.651-0.682,7-1c1.101-4.081,0.42-7.141-4-8
				c-1.568,0.43-0.854,3.145-4,2c-0.752-3.417,4.062-1.271,3-5c-2.918-0.251-3.451,1.883-5,3c0.275,1.752-2.813,4.989,0,6
				c1.09-1.004,4.907-4.297,6-2C98.068,100.343,95.298,100.906,93.059,102z M110.059,96c-4.477-1.762-3.598,5.292-1,5
				c0.06-0.611,0.148-1.184,1-1c0.609-0.057,1.187-0.15,1-1c-3.119-1.912,2.326-3.579,3-5c-3.248,1.154-6.148-3.055-8,0
				C106.672,95.386,109.906,94.15,110.059,96z M127.059,93c-1.841,3.493-5.662,5.005-8,8c3.735,1.068,2.853-2.483,6-2
				c-0.391,1.427-1.201,1.687,0,3c5.01,0.597,7.299-5.461,5-9C129.057,93,128.059,93,127.059,93z M66.059,99
				c0.844,2.155,6.374-0.375,7,2c-0.558,2.442-3.87,2.13-3,6c2.555,0.444,4.597,1.401,6,3c1.043,4.956,0.271,11.729,4,14
				c0.827-7.006-4.159-12.452,0-17c-3.298-1.036-2.16-6.508-4-9c-1.182-1.152-3.536-1.132-6-1c-0.096-1.572,0.134-3.467-2-3
				C67.632,95.907,65.201,95.809,66.059,99z M38.059,102c1.278,1.388,4.721,0.612,6,2c1.532-3.521,0.054-2.262-1-4
				c-0.72-1.187-1.855-4.104-4-4C37.782,98.6,36.864,99.016,38.059,102z M28.059,105c0.221-1.728-1.185-2.959-2-4
				c-0.974-1.242-2.414-2.211-3-3C20.539,101.249,22.906,106.295,28.059,105z M139.059,99c0.547,4.214-7.815-0.486-7,4
				c1.688,3.676,4.105-0.835,6-1c0.049-0.004-0.094,1.895,0,2c1.617,1.839,6.729-1.382,5-3C142.398,99.658,140.92,99.137,139.059,99
				z M105.059,104c-0.607,3.563-0.521,7.255-2,12c0,0.667,0,1.333,0,2c-0.002,1,0,2,0,3c0.777-0.222,1.162-0.838,1-2
				c-0.002-1,0-2,0-3c1.107-1.892,1.275-4.726,2-7c2.156-2.177,5.188-3.479,9-4C115.412,95.389,109.089,103.708,105.059,104z
				 M116.059,107c-1.004-0.003-1.188,0.81-2,1c0.52,2.435-1.502,7.25-2,8c-1.349,2.021-3.156,8.914,1,9
				c-0.974-5.974,2.355-7.646,2-13c2.395-1.608,4.709-3.291,9-3c1.938-3.586-0.386-3.664-1-7c-2.969,0.366-4.935,1.733-6,4
				c0.385,0.521,4.856,1.479,2,2C117.777,107.944,117.673,106.718,116.059,107z M127.059,109c3.373-0.438,7.61-0.494,9-2
				c-2.349-0.985-4.914-1.754-8-2C126.312,107.039,128.803,106.96,127.059,109z M99.059,110c-0.049,0.908-0.938,0.754-1,1
				c-0.396,1.528-0.647,6.074-1,9c0.01-0.095,1.037,0.235,1,1c-0.022,0.515-1.285,0.51-1,2c0.012,0.069,0.926-0.062,1,0
				c1.26,1.03-1.701,5.938,2,4c0.936-0.218,0.969-0.843,1-2c0.022-0.922-0.961-0.796-1-1c-0.174-0.868,0.998-0.958,1-1
				c0.229-5.265,0.51-10.647,1-14c-0.211-1.122-1.107-1.558-2-2C100.473,108.396,99.102,109.17,99.059,110z M89.059,111
				c-0.588,4.522-2.521,11.86,1,15c1.864-5.854,0.965-12.521,2-17c-1.279-0.056-1.386-1.282-3-1
				C87.646,109.294,89.206,109.862,89.059,111z M106.059,120c-0.498,3.047-0.771,6.201,0,6c0.211-1.21,1.109-0.615,2,0
				c1.545-1.454,0.881-5.12,1-8c1.252-0.394,1.762-3.536,2-5c0.336-2.089,1.438-3.829-1-4
				C108.484,111.608,106.771,115.633,106.059,120z M82.059,117c-0.12-1.663,0.545-9.058-1-6
				C81.177,112.663,80.512,120.056,82.059,117z M120.059,124c3.219,0.153,2.17-4.62,3-7c0.061-0.167,0.76-0.403,1-1
				c0.102-0.245-0.015-0.733,0-1c0.071-1.356,3.709-4.594,1-5C122.686,113.959,119.939,117.55,120.059,124z M117.059,127
				c-0.512-5.845,2.354-8.313,3-13c-0.225-0.776-0.024-1.974-1-2C116.827,115.228,113.164,123.815,117.059,127z M127.059,119
				c-0.562-2.658,4.113-5.092,1-7C128.62,114.658,123.943,117.092,127.059,119z M74.059,120c0.387,1.438-0.522,3.733,1,4
				c0.276-0.824,0.816-5.437,0-8c-0.031-0.095-0.909,0.075-1,0c-0.828-0.677,0.687-4.146-2-3
				C71.131,115.94,73.497,117.917,74.059,120z M44.059,120c0.585,1.947-0.765,5.026,2,5c2.324-3.303-2.884-5.987-3-10
				c0.555,0.003,1.135-0.812,0-1C40.997,115.459,43.405,117.825,44.059,120z M49.059,122c0.644,1.649-0.775,5.95,3,5
				c0.581-5.582-2.989-7.013-3-12c-1.177,0.156-2.839-0.172-3,1C47.119,117.265,48.089,119.519,49.059,122z M67.059,125
				c0.202-3.899-0.184-6.094-1-8c-0.46-1.072-0.035-2.481-2-2C64.375,119.017,64.756,122.968,67.059,125z M57.059,123
				c0.491,1.354,0.789,3.271,2,4c0.27-3.938-0.386-6.949-3-8C55.679,120.853,56.682,121.964,57.059,123z M56.059,126
				c-0.777-2.226-0.578-5.424-3-6C53.566,122.491,53.025,126.032,56.059,126z M124.059,137c-1.01-0.012-1.26-1.753,0-2
				c1.906,0.426,1.812,2.854,5,2c-1.791-3.582,0.084-3.041,4-3c-1.133-3.103-2.895-11.082-6-8c1.211-0.308,3.447,2.89,1,3
				c-2.113-0.89-2.957-3.045-6-3c-0.295,2.039-2.707,1.961-3,4C120.952,131.487,121.438,139.553,124.059,137z M65.059,146
				c-0.003-1.004,0.81-1.19,1-2c1.965,0.299,1.982-1.351,3-2c1.71,1.622,3.639,3.026,7,3c-0.023-4.979-1.556-8.444-3-12
				c2.076,0.591,3.409,1.924,4,4c0.015,2.651-0.556,5.888,2,6c-0.001-9-2.598-15.403-12-15c-2.728,3.065,3.49,4.885,0,8
				c-2.645-0.356-0.905-5.097-3-6c-1.36,1.615-6.91-1.033-11,0c-0.18,3.26,2.35,4.812-2,5c-0.143-6.524-5.12-8.214-12-8
				c-0.114,1.22-0.299,2.367-2,2c-0.224,0.774-0.028,1.972-1,2c1.57,4.429,3.318,8.681,8,10c1.235-3.235-3.236-0.765-2-4
				c-2.448-0.11-0.213-3.308,1-3c0.361,3.638,2.361,5.638,6,6c1.396-2.874-2.726-5.08,0-6c2.597,1.069,1.402,5.931,4,7
				c2.416-3.312,2.29,4.297,6,3c1.373-2.28-2.578-3.76,0-4c1.902-0.388,1.189,2.343,2,3c1.171,0.95,4.412-0.753,4,2
				C64.502,144.996,63.923,145.81,65.059,146z M80.059,135c3.229,2.343,0.128,5.468,2,7c1.858,1.521-1.002,9.012-1,9
				c-0.569,4.903,0.412,11.53,1,13c0.298,0.746-0.032,1.996,1,2c0.239,1.086,1.646,2.399,2,1c-0.611-0.058-1.185-0.149-1-1
				c-0.101-5.981-0.143-11.819,2-14c0,4.333,0,8.665,0,13c1.646,1.627,4.94,7.878,7,3c-1.438-2.213-2.438,1.259-3-1
				c-0.062-0.979-0.728-1.22-1-2c-1.104-3.149,0.053-3.884,0-5c-0.002-0.044-0.939,0.047-1,0c-0.688-0.563,0.955-2.822,1-3
				c0.156-0.627-0.172-1.38,0-2c1.069-3.873,4.817-11.183,2-14c-0.511-0.511,0.34-3.351,1-3c1.478,0.185,0.924,2.415,1,4
				c0.198,4.185-0.422,8.708-2,10c-0.271,0.222,0.133,1.646,0,2c-0.748,1.979-1.523,4.576-1,7c1.568-0.097,1.91-0.323,2-2
				c0.053-1.028,0.854-0.603,1-1c0.924-2.467,0.438-6.608,1-9c0.021-0.079,0.92,0.063,1,0c0.275-0.226-0.144-1.646,0-2
				c0.504-1.262,0.86-1.295,0-2c-0.211-0.174,0.043-1.694,0-2c-0.766-5.354-0.482-10.51-4-12c-0.979,3.065-2.668-1.149-4-1
				c0.053,1.72-0.771,2.562-2,3c-0.974-2.086-3.68-7.577-6-5c1.008,0.01,1.257,1.752,0,2c-1.123,0.101-1.557-1.454-2,0
				c1.002-0.004,1.189,0.81,2,1c1.122,0.101,1.556-1.454,2,0C81.133,132.741,80.835,134.108,80.059,135z M110.059,135
				c-2.216-0.786,0.189-6.19-4-5c2.026,4.306-0.224,12.89,7,12c0.957-1.863-2.994-3.343,0-4c1.405,0.26,1.143,2.192,2,3
				c1.666-0.002,3.334,0,5,0c-0.533-3.801-3.123-5.545-3-10c-1.496-1.171-4.091-1.244-5-3c-1.178,0.155-2.84-0.174-3,1
				C109.995,129.843,112.412,134.155,110.059,135z M96.059,131c-0.709,3.708,1.709,4.29,1,8c1.377,0.043,2.194-0.472,3-1
				c0.36,3.638,2.36,5.638,6,6c-0.08-4.588-2.891-6.444-2-12C101.637,130.36,99.199,129.453,96.059,131z M135.059,188
				c-0.457-0.899-0.912-0.321-1-2c-0.058-1.08-0.793-0.537-1-1c-0.748-1.681-1.25-4.257-2-6c-1.521-3.533-3.201-6.976-4-10
				c-1.341-5.069-1.52-8.356-3-13c0-2.667,0-5.335,0-8c0-1.335,0-2.667,0-4c0-0.667,0-1.335,0-2c-0.777,0.222-1.164,0.837-1,2
				c0.188,4.601-0.261,9.731,0,13c0.068,0.881,0.938,0.765,1,1c0.41,1.563-1.396,0.854,0,2c0.211,0.172-0.043,1.694,0,2
				c0.455,3.187,0.447,3.62,1,5c0.789,1.974,1.549,4.524,2,6c0.791,2.593,1.069,5.56,2,8c0.043,0.116,0.901-0.099,1,0
				c1.147,1.147-0.168,3.78,1,5c0.877,0.915,1.276,1.864,2,3c1.276,2.004,0.979,5.037,3,6c-0.307,1.212,2.893,3.447,3,1
				C136.811,194.214,135.994,189.842,135.059,188z M49.059,148c0.338-1.71,1.802-3.874-1-4C48.195,149.88,48.004,153.317,49.059,148
				z M49.059,159c-0.184,1.301,0.093,2.688,0,4c-0.124,1.729-0.93,3.053-1,4c-0.009,0.117,1.198,0.01,1,1
				c-0.068,0.336-0.938-0.024-1,1c-0.09,1.479-0.161,3.701,1,4c1.52-2.616-0.721-9.253,3-9c-1.497,5.959-0.808,11.399-2,16
				c-0.022,0.083-0.918-0.069-1,0c-0.276,0.226,0.142,1.644,0,2c-1.602,4.003-2.919,6.718-4,11c-0.465,1.838-1.689,3.69-1,6
				c2.262,0.414,2.954-2.134,3-3c0.057-1.097,0.77-0.517,1-1c0.902-1.907,1.401-4.731,2-7c2.055-7.788,4.203-16.532,5-24
				c0.463-4.345,0.956-6.069,1-9c0.047-3.159,1.204-8.88-2-8c-0.167,6.167-0.064,12.603-3,16c-0.817-2.601,0.876-6.64,1-10
				c0.098-2.672,0.479-9.919-1-7C51.378,151.788,49.599,155.153,49.059,159z M112.059,161c0.573,0.46-0.947,1.347-1,1
				c0.151,0.997,0.818,1.164,1,2c0.76,3.498,0.551,4.24,1,7c0.521,3.188,0.869,5.533,1,8c0.043,0.81,0.979,0.878,1,1
				c0.231,1.263-0.065,2.714,0,4c0.049,0.951,0.91,0.697,1,1c0.252,0.854-0.381,2.199,0,3c0.188,0.392,1.812,0.506,2,1
				c0.853,2.243,0,3.336,1,5c0.672,1.118,2.656,2.31,3,3c-0.004,0.556,0.812,1.135,1,0c-2.562-1.692-2.098-5.187-3-8
				c-0.875-2.724-2.311-5.233-3-8c-0.563-2.267-0.529-4.544-1-7c-0.832-4.34-2.164-12.792-3-19c-0.562-4.174,2.571-8.431-3-10
				c-0.012,1.321-1.752,0.913-2,2c-0.041,0.997,0.053,2.002,0,3c-0.039,0.717-1,0.998-1,1c-0.877,7.214-0.89,16.644,0,24
				c0.238,1.976,1.748,5.765,2,7c0.547,2.7,0.319,5.803,1,8c0.114,0.371,1.781,1.501,2,2c0.655,1.497,0.461,2.905,1,4
				c0.978,1.979,1.601,5.349,4,5c1.739-1.699-0.341-4.003-1-6c-0.957-2.896-2.599-6.396-3-8c-1.479-5.928-3.834-13.858-2-18
				c-0.957-0.212-0.938-0.851-1-2c-0.047-0.871-0.955-0.803-1-1c-0.357-1.572,1.375-0.875,0-2c-0.797-0.651-0.185-9.576,0-11
				c0.289-2.257,0.215-6.403,3-6C113.186,151.694,109.428,158.896,112.059,161z M117.059,170c0.041,0.783,0.985,0.913,1,1
				c0.664,4.015,0.719,9.953,2,11c0.659,0.539,0.979,4.62,1,5c0.053,0.99,0.883,0.647,1,1c0.951,2.854,0.278,3.618,1,6
				c0.104,0.347,1.762,1.538,2,2c0.613,1.194,0.227,4.709,3,4c0.336-2.617-1.58-5.657-2-6c-0.353-0.288-0.76-2.638-1-3
				c-1.17-1.754-1.41-4.289-2-7c-0.422-1.94-0.539-4.077-1-6c-0.02-0.08-0.92,0.065-1,0c-0.271-0.222,0.133-1.647,0-2
				c-1.011-2.681-1.451-6.155-2-9c-0.697-3.621-1.668-8-2-12c-0.345-4.133,1.148-7.845-1-10
				C115.148,151.414,116.714,163.466,117.059,170z M43.059,158c3.211,1.12,1.928-5.767,2-8c0.04-1.263,2.96-4.992-1-4
				C44.074,150.351,44.389,154.997,43.059,158z M58.059,150c-1.089,1.83,0.134,3.972,0,6c-0.098,1.466-0.827,2.042-1,3
				c-0.294,1.612,0.213,3.372,0,5c-0.776,5.917-2.169,10.801-3,15c-0.784,3.96-1.685,8.737-2,10c-0.356,1.423-0.356,2.032-1,3
				c-1.728,2.589-2.438,5.438-2,9c2.568,0.26,2.581-2.373,3-3c1.252-1.882,1.54-4.161,2-6c0.177-0.71,0.939-0.819,1-1
				c0.724-2.207,0.427-4.532,1-7c0.037-0.163,0.817-0.271,1-1c1.201-4.804,0.456-8.347,1-13c0.118-1.015,0.802-1.162,1-2
				c0.46-1.957-0.283-2.976,1-4c0.585-0.47-0.958-1.333-1-1c0.162-1.288,0.856-1.409,1-3c0.403-4.485,0.609-9.099,0-13
				c-1.177,0.155-2.839-0.174-3,1C57.837,148.222,58.22,148.837,58.059,150z M61.059,163c-0.191,1.588,0.386,3.453,0,5
				c-0.901,3.601-1.306,8.881-2,13c-0.168,0.989-0.819,1.168-1,2c-0.772,3.547-0.424,6.478-1,9c-0.71,3.11-3.538,5.888-2,9
				c2.479,0.885,2.925-2.688,3-4c0.135-2.399,0.864-2.42,1-5c0.051-0.983,0.889-0.659,1-1c2.141-6.583,2.477-14.479,3-21
				c0.469-5.869,1.839-13.843,1-20c-0.009-0.06-0.934,0.054-1,0c-0.544-0.437,0.913-1.387,1-1c-0.251-1.113-1.081-1.565-2-2
				C62.671,153.06,61.484,159.453,61.059,163z M66.059,154c-0.147,2.127-1.039,4.039-1,6c0.019,1.01,0.807,1.181,1,2
				c0.892,3.792-0.731,5.914-1,8c-0.287,2.214,0.264,4.255,0,6c-0.264,1.735-1.648,4.14-2,6c-0.244,1.285,0.171,2.701,0,4
				c-0.186,1.399-0.829,2.078-1,3c-0.394,2.11-0.713,4.528-1,7c-0.146,1.248-3.397,5.947,1,6c1.68-1.397,2.902-5.144,3-7
				c0.046-0.882,0.949-0.789,1-1c0.369-1.562-0.196-3.401,0-5c1.436-11.729,2.853-26.06,2-40c-0.212-1.122-1.11-1.558-2-2
				C65.927,149.39,66.231,151.476,66.059,154z M70.059,165c-0.026,0.714-1.309-0.071,0,1c0.423,0.347,0.034,4.351,0,5
				c-0.03,0.565-1.005,1.197-1,1c-0.023,1.001,0.824,1.19,1,2c0.727,3.347-0.703,3.961-1,6c-0.238,1.63,0.257,3.372,0,5
				c-0.412,2.603-1.744,5.631-2,8c-0.189,1.74,0.089,4.161,0,6c-0.051,1.021-3.064,4.845,1,4c3.059-1.472,1.463-5.812,2-9
				c0.01-0.065,0.928,0.058,1,0c0.205-0.169-0.036-1.701,0-2c0.465-3.882,0.737-4.868,1-8c0.497-5.94-1.856-12.553,2-15
				c-0.428,13.122-0.368,20.812-2,33c3.646,0.497,2.899-3.097,3-5c0.045-0.87,0.955-0.806,1-1c0.352-1.551-0.127-3.411,0-5
				c0.109-1.368,0.894-3.462,1-5c0.106-1.56-1.255-0.976,0-2c0.187-0.153-0.014-1.722,0-2c0.463-10.133,0.087-26.649-1-31
				c-0.648-2.59,0.308-3.819-2-4c-0.073,2.917,0.094,7.149,0,11c-0.091,3.71,1.455,10.421-2,10c0.54-1.578,1.256-1.744,0-3
				c-0.882-0.882,1.002-3.044,1-3c0.296-5.194-0.152-9.586-1-12c-0.532-1.517-0.327-2.72-2-3
				C68.708,151.918,70.316,157.851,70.059,165z M99.059,150c0.824,11.05-0.514,19.819,1,30c0.312,2.076,1.521,4.647,2,7
				c0.615,3.022,0.226,6.405,1,9c0.026,0.091,0.91-0.073,1,0c0.291,0.237-0.174,1.638,0,2c0.062,0.123,0.883-0.097,1,0
				c1.285,1.052-1.065,7.06,3,5c-0.172-3.974-2.119-7.879-3-12c-0.201-0.944,0.104-2.04,0-3c-0.148-1.442-0.811-2.049-1-3
				c-2.455-12.291-4.229-24.237-2-37c-0.223-0.778-0.838-1.163-2-1C99.9,148.177,100.23,149.838,99.059,150z M104.059,167
				c0.312,2.296-1.062,5.342,1,7c1.197-0.979,0.062-2.521,0-4c-0.145-3.388,0.215-6.028-1-7c-0.674-0.539,1.028-1.188,1-1
				c0.582-3.683-0.099-6.817,0-10c0.051-1.672,3.227-5.231-1-5C102.837,153.403,103.453,162.554,104.059,167z M97.059,168
				c0.885-1.5,0.107-3.207,0-6c-0.099-2.481,0.898-6.558-1-8C94.544,157.026,94.012,166.341,97.059,168z M121.059,160
				c0.271-1.362-0.619-3.903-1-2C119.785,159.36,120.678,161.903,121.059,160z M47.059,165c1.301-1.332,0.614-3.021-1-4
				C46.228,162.496,45.701,164.69,47.059,165z M39.059,175c-0.297,1.118-0.406,2.492-1,4c-0.129,0.326-1.805,0.586-2,1
				c-0.384,0.808,0.41,2.206,0,3c-0.204,0.394-1.731,0.552-2,1c-0.272,0.451,0.13,1.478,0,2c-0.506,2.024-1.506,3.021-2,5
				c-0.493,1.967-4.109,3.937,0,5c1.949-4.49,5.066-9.694,7-15c1.04-2.854,1.889-4.89,2-7c0.046-0.887,0.947-0.782,1-1
				c0.786-3.271-0.368-3.882,1-5c0.631-0.517-0.25-4.433-1-4C40.662,168.126,39.952,171.62,39.059,175z M41.059,182
				c-1.873,4.795-5.019,9.51-6,15c3.254-0.14,3.894-3,4-5c0.056-1.069,0.806-0.551,1-1c0.645-1.504,0.532-2.479,1-4
				c0.282-0.92,0.973-2.507,1-3c0.051-0.976,0.894-0.67,1-1c0.894-2.819,1.348-6.009,2-9c0.653-3.002,2.159-8.204,1-8
				C44.337,171.704,43.082,176.815,41.059,182z M77.059,202c0.102,1.121-1.455,1.556,0,2c0.22-0.778,0.837-1.163,2-1
				c3.015-3.492,1.963-11.199,2-18c0.017-3.253,0.154-6.94,0-10c-0.153-3.033,1.16-7.085-2-8
				C79.054,181.372,78.777,189.342,77.059,202z M83.059,196c0.112,2.36-1.48,7.214,2,7c0.003-6.454-0.007-11.651,0-17
				c0-0.222,1.21,0.063,1-1c-0.061-0.299-0.905-0.036-1-1c-0.427-4.272,1.085-11.753-1-13C82.54,177.349,82.727,189.076,83.059,196z
				 M87.059,179c-0.024,0.537-1,1.235-1,1c-0.005,1.212,0.828,2.089,1,4c0.344,3.851-0.168,7.088,0,10c0.053,0.908,0.937,0.748,1,1
				c0.252,0.96-1.14,1.247-1,2c0.4,2.173,0.211,6.951,4,6c3.104-1.874,0.344-5.183,0-9c-0.172-1.908,0.289-4.822,0-7
				c-0.312-2.37-1.494-4.021-1-6c0.637-2.551,0.545-1.078,0-4c-0.431-2.3,0.69-5.558-3-5C86.993,174.841,87.15,177.222,87.059,179z
				 M97.059,191c0.406,1.728,0.512,2.371,1,4c0.752,2.515,0.846,6.851,4,7c-0.424-10.577-4.061-17.94-4-29
				c-1.279-0.056-1.386-1.282-3-1C95.441,178.646,96.036,186.672,97.059,191z M133.059,195c-0.082-1.558-1.523-2.976-2-4
				c-0.254-0.549-0.977-1.536-1-2c-0.058-1.097-0.771-0.521-1-1c-1.312-2.786-2.19-6.733-3-8c-1.238-1.94-1.511-4.151-2-6
				c-0.225-0.776-0.024-1.974-1-2c0,1,0,2,0,3c0.86,2.676,1.775,6.103,2,7c0.317,1.271,0.268,1.265,1,2c0.573,0.574-0.289,3.192,0,4
				c0.148,0.421,1.762,1.459,2,2c0.686,1.56,0.359,2.851,1,4c1.16,2.083,2.414,5.144,5,5
				C136.473,196.882,133.161,196.968,133.059,195z M93.059,187c0.271,1.231-0.064,2.735,0,4c0.041,0.787,0.984,0.908,1,1
				c0.168,1.002-0.951,0.757-1,1c-0.199,0.993,0.959,0.776,1,1c0.596,3.285-0.738,8.053,3,9c0.782-3.944-1.414-7.892-2-12
				c-0.326-2.288,0.23-4.778,0-7c-0.104-1.017-0.804-1.162-1-2c-0.969-4.112,0.321-7.164-2-9
				C91.352,178.074,92.624,185.009,93.059,187z M45.059,187c0.396-3.12,3.275-9.071,3-11c-0.078-0.544-0.746-1.146-1,0
				C47.334,179.985,42.02,183.569,45.059,187z M106.059,180c0.16-0.697-0.35-5.819-1-3C104.18,180.806,105.594,182.008,106.059,180z
				 M41.059,198c0.056-3.276,2.844-3.823,2-8c1.556,0.079,0.693-2.908,0-1C42.967,191.966,37.944,195.144,41.059,198z"/>
			<path id="svg_107" fill="#FFFFFF" stroke="#000000" stroke-miterlimit="10" d="M95.059,10c-1.91-1.817,2.232,0.433,4-1
				c-1.121-3.15-0.091-2.264,0-6c2.318-0.319,3.84,0.16,5,1c0.06,4.722-3.494,5.841-5,9c-0.369,1.701,0.778,1.887,2,2
				c-0.311,2.358-3.474,1.86-3,5c-0.974-0.028-0.773-1.224-1-2c-1.553-2.69-3.08-2.582-3-5c0.002-0.097,1.883,0.116,2,0
				C96.811,12.247,95.711,9.657,95.059,10z"/>
			<path id="svg_108" fill="#FFFFFF" stroke="#000000" stroke-miterlimit="10" d="M54.059,21c-0.28,2.279,0.24,3.759,2,4
				c0.66,0.517,1.166-1.905,1-2c1.115,0.639,0.27,1.027,1,2c0.307,0.41,1.78,0.611,2,1c1.032,1.826-0.195,5.068,4,4
				c-0.132,2.464-0.152,4.818,1,6c3.435-0.897,0.56-8.107,7-6c0.162-3.087-2.363-5.653,0-8c1,0,2,0,3,0c0.576,0.606,2.34,4.743,0,5
				c1.394,1.606,4.935,1.064,6,3c-0.329,3.871-2.802,5.592-6,4c0-1.333,0-2.667,0-4c-2.135-0.467-1.905,1.428-2,3
				c1.71,3.956,8.826,2.506,10,7c0.421,3.421-2.995,3.005-4,5c0.849,1.483,2.516,2.15,5,2c0,1.333,0,2.667,0,4
				c-3.148-0.492-4.838,2.879-6,6c-1.794,0.127-2.11-1.224-4-1c-0.34-2.007,0.204-3.129,2-3c-0.131-1.208-2.615-1.153-3-2
				c-0.476-1.045,4.325-3.527,0-3c0.162-1.163-0.222-1.779-1-2c0.56-2.078,1.56-2.119,3-1c0.384-3.384-4.427-1.574-3-6
				c1.793-0.127,2.109,1.224,4,1c0.116-1.876-2.264-1.667-3-3c-0.582-1.051,0.676-3.114-1-3c-1.259,0.247-1.009,1.988,0,2
				c-0.275,2.358-3.726-0.092-4-1c-1.559-0.201-0.34,2.296-1,3c-0.866,0.923-5.426-0.588-4,3c-3.261,0.26-4.813-1.188-5-4
				c0.804,0.529,1.623,1.043,3,1c0.541-3.542-3.542-2.459-3-6c-2.527,1.891,0.922,3.505-1,6c-2.28-0.28-3.76,0.241-4,2
				c-1.568-0.354,0.875-1.761-1-2c-0.53-0.805-1.044-1.624-1-3c0.972-0.028,0.776-1.224,1-2c1.701,0.367,1.886-0.78,2-2
				c0.81,0.19,0.997,1.003,2,1c-0.365-3.586-2.686-3.664-1-7c-3.686,0.314-2.353,5.648-4,8c-1.194,0.196-1.394-1.713-2-2
				c-0.369-0.175-1.754,0.294-2,0c-0.32-0.382,0.338-1.639,0-2c-0.834-0.892-2.702-1.463-3-3c-3.247-0.58-4.652,0.681-7,1
				c-1.111-3.14-0.469-2.642,1-5c-0.014-1.987-2.729-1.272-2-4c1.085-0.248,0.678-1.989,2-2c2.134-0.467,1.904,1.428,2,3
				c3.058,0.725,2.94-1.726,6-1c0.022,2.355-1.723,2.943-1,6c0.24,1.759,1.72,2.279,4,2c-0.164,1.163,0.22,1.779,1,2
				c0.81-0.19,0.997-1.003,2-1c-0.097-2.57-3.904-1.43-4-4c-0.475-3.141,1.247-4.086,3-5c0.169-2.503-1.537-3.131-3-4
				c1.274-2.059,1.594-5.072,5-5c0.52,1.479,1.479,2.52,2,4c2.323-1.976,2.677-1.976,5,0c-0.605,2.395-1.438,4.562-1,8
				c0.85,0.184,0.943-0.39,1-1C63.278,21.783,55.015,23.093,54.059,21z M51.059,19c2.058,1.983,0.94,1.983,3,0
				c0.056,0.61,0.149,1.184,1,1c0.169-2.503-1.537-3.131-3-4C52.102,17.376,51.587,18.195,51.059,19z"/>
			<path id="svg_109" fill="#FFFFFF" stroke="#000000" stroke-miterlimit="10" d="M120.059,16c0.594-3.191-1.877-3.093,0-5
				c1.203-0.66,3.98,1.828,4,2c0.144,1.351-4.228,2.934,0,3C123.398,18.995,121.92,15.043,120.059,16z"/>
			<path id="svg_110" fill="#FFFFFF" stroke="#000000" stroke-miterlimit="10" d="M125.059,28c-0.787-3.454,0.938-4.399,3-5
				c-0.826-2.827,1.409-2.591,1-5c2.486,0.154,3.096-1.571,5-2c-1.285-1.314-1.285-3.687,0-5c2.332,0.334,4.311,1.025,5,3
				c-0.564,4.1-5.22,4.114-7,7c0.248,1.257,1.986,1.008,2,0c1.664,0.656-0.262,1.359-1,2C131.76,24.126,127.718,27.619,125.059,28z"
				/>
			<path id="svg_111" fill="#FFFFFF" stroke="#000000" stroke-miterlimit="10" d="M120.059,18c3.146-0.479,3.907,1.424,6,2
				c-0.529,0.804-1.043,1.623-1,3c-3.469-0.802-3.845,1.489-7,1c-0.552-2.217,1.909-1.424,2-3c-0.44-1.454-0.879,0.102-2,0
				C114.969,19.996,120.93,20.054,120.059,18z"/>
			<path id="svg_112" fill="#FFFFFF" stroke="#000000" stroke-miterlimit="10" d="M125.059,45c0.248,1.086,1.986,0.678,2,2
				c0.185,2.181-0.815,3.181-3,3c-0.315,2.652,5.604-0.936,4,3c1.151-0.325,3.442-4.362,1-5c0.42-2.226,5.31-0.783,6,0
				c0.34,4.341-2.754,5.247-6,6c-0.469,3.134,2.518,2.818,4,4c-0.439,2.892-2.105,4.558-5,5c1.062,3.726-2.104,3.228-3,5
				c-4.16-1.194,0.771-3.424,1-6c-0.752-3.249-3.617-4.384-6-6c-0.744-3.079,2.743-1.922,2-5c0.743-3.079-2.744-1.922-2-5
				c3.428-1.904,0.877-9.789,4-12c1.666,0,3.334,0,5,0c1.021,4.687-1.646,5.687-3,8C131.214,39.493,127.795,44.474,125.059,45z
				 M123.059,55c1.479,1.158,2.521,1.158,4,0c-0.225-0.776-0.024-1.973-1-2C126.043,54.651,123.284,53.56,123.059,55z"/>
			<path id="svg_113" fill="#FFFFFF" stroke="#000000" stroke-miterlimit="10" d="M32.059,52c0.359-1.562-2.502-0.335-3-1
				c-0.75-1.002,1.084-2.169,1-3c-0.177-1.729-3.006-0.256-2-4c-1.794-0.127-2.11,1.224-4,1c-1.547-1.454-0.881-5.12-1-8
				c0.806,0.693,2.739,1.556,3,0c2.054,0.279,1.995,2.671,3,4c1.793,0.127,2.109-1.225,4-1c1.204,3.795,5.319,4.68,4,11
				c-0.797,1.322,2.26,1.606,3,3c0.364,0.686-0.139,2.224,0,3c0.319,1.797,3.04,4.172,3,4c0.361,1.564-0.944,1.763-1,3
				c-0.064,1.395,1.281,2.037,1,3c-0.612,2.096-1.786,5.383-6,5c0.176-4.843-3.777-5.558-7-7c0.352-0.534,0.995-2.254,2-2
				c1.517,0.384,1.527,4.59,6,3c-0.052-1.173-2.72-1.199-3-2c-0.258-0.736,0.635-2.417,1-2c-1.301-1.487-2.003-0.753-4-2
				c0.443-0.891,0.877-1.789,2-2c-0.734-0.934-1.819-1.515-3-2c-2.802,0.981,1.452,2.668-1,4c-3.418,0.417-5.698-0.302-5-4
				c2.728,0.09,2.012-1.666,4,0c0.85,0.184,0.943-0.39,1-1C29.507,52.783,31.968,53.576,32.059,52z"/>
			<path id="svg_114" fill="#FFFFFF" stroke="#000000" stroke-miterlimit="10" d="M14.059,38c1.135,0.19,0.555,1.003,0,1
				c1.493,1.506,4.481,1.518,4,5c-2.684,1.027-2.352-2.001-3-3C13.97,39.325,12.422,39.699,14.059,38z"/>
			<path id="svg_115" fill="#FFFFFF" stroke="#000000" stroke-miterlimit="10" d="M66.059,54c-2.465,0.132-4.819,0.151-6-1
				c-2.856,1.241,4.345,2.908,1,5c-3.146,0.479-3.91-1.424-6-2c-0.723-3.057,1.022-3.645,1-6c3.145-0.479,3.909,1.424,6,2
				c2.703-0.899-2.11-2.414-3-3c0.436-1.23,1.279-2.054,3-2c-0.31-2.358-3.473-1.861-3-5c5.314-0.547,7.033,4.043,5,8
				c1.146-1.2,2.534-0.39,1,0C64.931,51.793,66.282,52.109,66.059,54z"/>
			<path id="svg_116" fill="#FFFFFF" stroke="#000000" stroke-miterlimit="10" d="M147.059,56c2.895,0.441,4.561,2.108,5,5
				c-1.674,1.326-3.353,2.649-7,2c-0.104,3.104,3.146,2.854,2,7c-3.666,0.333-4.039,3.962-9,3c1.186-2.483,1.447-5.886,2-9
				c3.144,0.474,4.086-1.248,5-3c-1.377-1.955-3.672,3.596-8,2c-1.578-2.09-0.69-6.641-2-9c1.439-0.56,2.439-1.56,3-3
				c-0.518-5.517,1.443-8.557,6-9c0.442,0.89,0.877,1.788,2,2c-0.353,3.314-2.996,4.338-5,6c0.16,1.172,1.822,0.843,3,1
				c-0.438,1.23-1.281,2.054-3,2c1.736,4.258,7.147-1.152,6-6c1.793-0.127,2.107,1.224,4,1c0.726,3.056-1.021,3.644-1,6
				c-4.955-3.441-5.209,5.086-10,5C142.848,62.364,145.844,57.519,147.059,56z"/>
			<path id="svg_117" fill="#FFFFFF" stroke="#000000" stroke-miterlimit="10" d="M24.059,64c-0.162-1.172-1.823-0.844-3-1
				c-0.776-0.957,0.986-2.038,1-2c-0.538-1.591-1.827-0.13-3-1c-0.791-0.586-0.113-3.441-2-3c-2.751,0.895,2.33,4.059-3,3
				c0.515,2.544,1.703,3.877-2,4c0.443,0.89,0.877,1.788,2,2c0.588,0.922-5.973,0.754-5-2c-4.515,4.301,2.955,2.999,4,4
				c2.624,2.514,3.166,3.055,3,7c-3.87,0.429-3.558,1.095-6-1c-0.41,2.409,1.826,2.173,1,5c-4.963-0.21-7.275-3.603-4-7
				c3.059-0.726,2.94,1.725,6,1c0.493-3.161-4.963-0.371-4-4c-2.465,0.132-4.819,0.151-6-1c-0.538-3.538,0.848-5.152,3-6
				c0.744-3.079-2.745-1.922-2-5c1.694-1.577,6.958-1.083,7,2c-3.815-2.862-0.089,3.806,2,4c2.093,0.171-0.782-2.979-1-5
				c-0.108-0.999,0.985-2.075,1-2c-0.234-1.151-4.042-1.729,0-2c0.744-3.079-2.745-1.922-2-5c1.135-0.19,0.555-1.003,0-1
				c-0.307-2.307,2.889-1.111,3-3c2.086,1.58,5.017,2.316,5,6c0.903,1.763,2.236,3.096,4,4c-0.53,0.804-1.044,1.623-1,3
				c1.616,1.383,1.243,4.757,5,4c-0.813,3.458,1.867,4.222,0,6c-4.66-1.383-8.918,0.062-12-1C15.155,61.817,20.211,63.136,24.059,64
				z M14.059,54c0.666,0,1.333,0,2,0c0-0.667,0-1.333,0-2c-0.667,0-1.334,0-2,0C14.059,52.667,14.059,53.333,14.059,54z"/>
			<path id="svg_118" fill="#FFFFFF" stroke="#000000" stroke-miterlimit="10" d="M158.059,64c2.113,0.309-1.052,3.473-3,3
				c0.229,1.44,2.984,0.349,3,2c-0.261,5.857-7.394,1.683-7-2c0.73-4.269,5.643-4.361,4-11c5.937,1.6,2.064-6.601,8-5
				c3.485,4.999-4.416,5.879-4,11c-1.902,0.429-2.514,2.154-5,2C153.343,65.622,158.771,65.622,158.059,64z"/>
			<path id="svg_119" fill="#FFFFFF" stroke="#000000" stroke-miterlimit="10" d="M101.059,92c-0.724-3.057,1.021-3.645,1-6
				c-3.035,1.3-2.347,6.322-8,5c1.028-3.479-0.021-8.89,2-11c1.627-1.7-0.561-1.705,1-4c0.252-3.586-3.002-3.664-3-7
				c0.166-0.072,1.985,0.093,2,0c0.664-4.643-0.633-11.303,1-15c1.906,1.876,1.812-0.594,5,0c1.326,1.673,2.647,3.351,2,7
				c-1.793-0.127-2.106,1.224-4,1c1.607,3.294-3.479,7.076,1,7c0.043,1.71-0.744,2.589-2,3c0.248,1.257,1.988,1.008,2,0
				c3.303,1.739,1.063,5.348-2,6c0.16,1.172,1.822,0.843,3,1c0.26,3.26-1.188,4.812-4,5c1.894,2.526,3.506-0.922,6,1
				c0.442,0.89,0.877,1.788,2,2c0,1.667,0,3.333,0,5c-0.666,0-1.334,0-2,0c-0.186,0.85,0.393,0.943,1,1
				C104.777,95.363,102.387,91.854,101.059,92z"/>
			<path id="svg_120" fill="#FFFFFF" stroke="#000000" stroke-miterlimit="10" d="M77.059,80c2.86,1.654-5.11,0.795-3,5
				c-1.334,0-2.667,0-4,0c-2.897-1.611,4.652-5.403-2-5c-0.28-2.28,0.24-3.759,2-4c-0.111-1.889-3.307-0.694-3-3
				c-0.689-2.689,2.066-1.933,3-3c-0.31-1.357-2.504-0.83-4-1c0.162-1.163-0.222-1.779-1-2c-3.306,1.5,2.077,2.445,1,5
				c-2.356,0.022-2.944-1.723-6-1c-0.132-2.465-0.152-4.818,1-6c1.759,0.631,4.673-0.865,6,0c0.417,0.272-0.244,2.491,1,2
				c3.305-1.5-2.078-2.445-1-5c-1.48,1.158-2.521,1.158-4,0c1.387-1.279,0.611-4.722,2-6c1.666,0,3.333,0,5,0
				c-0.59,4.256,0.33,7.003,5,6c-0.664,2.27-2.585,8.385,1,9C73.584,72.634,73.052,82.794,77.059,80z"/>
			<path id="svg_121" fill="#FFFFFF" stroke="#000000" stroke-miterlimit="10" d="M44.059,83c0.189-1.136,1.002-0.556,1,0
				c2.039-0.294,1.96-2.707,4-3c-1.183-1.818-5.215-0.786-7-2c-0.961-5.295,1.882-6.784,5-8c-2.61-2.557-3.326-4.37-1-8
				c1.666,0,3.333,0,5,0c-0.284,3.044,3.203,3.888,1,6c0.889-0.777,2.257-1.075,4-1c0.446,5.191,5.106,5.774,3,11
				c0.619,3.713,4.091,4.575,3,10c0.585,2.081,2.101,3.232,3,5c-0.138,1.862-0.659,3.342-2,4c1.523,2.476,2.052,5.947,5,7
				c-1.519,2.34,1.635,4.144,2,6c0.66,3.354-1.824,3.138,0,6c0.665,1.043,2.718,7.339,1,10c-2.827-1.194-1.337-4.553-2-7
				c-0.632-2.333-2.806-3.843-2-6c-2.481,0.147-4.853,0.187-5-2c-0.689-2.688,2.066-1.933,3-3c-1.584-2.084-6.997-0.337-9-2
				c-0.132-2.465-0.152-4.818,1-6c3.641,0.024,2.125,5.208,7,4c-0.734-0.934-1.819-1.515-3-2c-0.773-2.051,1.146-2.7,1-4
				c-0.157-1.39-1.536-0.201-2-1c-0.389-0.669,0.174-2.234,0-3c-0.303-1.325-1.799-1.565-2-3c-0.044-1.71,0.743-2.59,2-3
				c0.168-2.169-3.548-0.453-5-1c-0.511-2.93,3.174-5.638-2-5c-0.044-1.71,0.743-2.59,2-3c-0.162-1.172-1.823-0.844-3-1
				c-0.729-2.729,1.986-2.013,2-4c-0.162-1.172-1.823-0.844-3-1c0.162-1.163-0.222-1.779-1-2c-2.968,2.711,0.564,7.378,0,11
				c0.308,2.358,3.473,1.86,3,5C48.326,90.754,46.929,84.259,44.059,83z"/>
			<path id="svg_122" fill="#FFFFFF" stroke="#000000" stroke-miterlimit="10" d="M118.059,80c2.896,0.771,4.86,2.472,4,7
				c-2.24,0.685-5.011,3.005-7,1c-0.306,2.638,2.086,2.579,4,3c0.428,1.904,2.153,2.512,2,5c-1.674,1.326-3.353,2.649-7,2
				c1.447-2.503,2.42-3.927,1-7c-2.354-0.022-2.94,1.722-6,1c-0.64-3.638,2.069-3.93,5-4C116.927,86.869,117.77,83.711,118.059,80z"
				/>
			<path id="svg_123" fill="#FFFFFF" stroke="#000000" stroke-miterlimit="10" d="M133.059,84c0.442,0.89,0.877,1.788,2,2
				c0.127,1.793-1.225,2.109-1,4c-1.752,0.914-4.99,0.343-6,2c-1.504-0.071,1.072-6.169,2-7
				C130.768,84.364,131.755,84.038,133.059,84z"/>
			<path id="svg_124" fill="#FFFFFF" stroke="#000000" stroke-miterlimit="10" d="M110.059,109c2.438,0.171,1.336,1.911,1,4
				c-0.238,1.464-0.748,4.606-2,5c-0.119,2.88,0.545,6.546-1,8c-0.891-0.615-1.789-1.21-2,0c-0.771,0.201-0.498-2.953,0-6
				C106.771,115.633,108.484,111.608,110.059,109z"/>
			<path id="svg_125" fill="#FFFFFF" stroke="#000000" stroke-miterlimit="10" d="M43.059,114c1.135,0.188,0.555,1.003,0,1
				c0.116,4.013,5.324,6.697,3,10c-2.765,0.026-1.415-3.053-2-5C43.405,117.825,40.997,115.459,43.059,114z"/>
			<path id="svg_126" fill="#FFFFFF" stroke="#000000" stroke-miterlimit="10" d="M119.059,130c0.293-2.039,2.705-1.961,3-4
				c3.043-0.045,3.887,2.11,6,3c2.447-0.11,0.211-3.308-1-3c3.105-3.082,4.867,4.897,6,8c-3.916-0.041-5.791-0.582-4,3
				c-3.188,0.854-3.094-1.574-5-2c-1.26,0.247-1.01,1.988,0,2C121.438,139.553,120.952,131.487,119.059,130z"/>
			<path id="svg_127" fill="#FFFFFF" stroke="#000000" stroke-miterlimit="10" d="M65.059,145c0.412-2.753-2.829-1.05-4-2
				c-0.811-0.657-0.098-3.388-2-3c-2.578,0.24,1.373,1.72,0,4c-3.71,1.297-3.584-6.312-6-3c-2.598-1.069-1.403-5.931-4-7
				c-2.726,0.92,1.396,3.126,0,6c-3.639-0.362-5.639-2.362-6-6c-1.213-0.308-3.448,2.89-1,3c-1.236,3.235,3.235,0.765,2,4
				c-4.682-1.319-6.43-5.571-8-10c0.972-0.028,0.776-1.226,1-2c1.701,0.367,1.886-0.78,2-2c6.88-0.214,11.857,1.476,12,8
				c4.35-0.188,1.82-1.74,2-5c4.09-1.033,9.64,1.615,11,0c2.095,0.903,0.355,5.644,3,6c3.49-3.115-2.728-4.935,0-8
				c9.402-0.403,11.999,6,12,15c-2.556-0.112-1.985-3.349-2-6c-0.591-2.076-1.924-3.409-4-4c1.444,3.556,2.977,7.021,3,12
				c-3.361,0.026-5.29-1.378-7-3c-1.018,0.649-1.035,2.299-3,2c-0.19,0.81-1.003,0.996-1,2C63.923,145.81,64.502,144.996,65.059,145
				z"/>
			<path id="svg_128" fill="#FFFFFF" stroke="#000000" stroke-miterlimit="10" d="M81.059,131c-0.444-1.454-0.878,0.101-2,0
				c-0.811-0.19-0.998-1.004-2-1c0.443-1.454,0.877,0.101,2,0c1.257-0.248,1.008-1.99,0-2c2.32-2.577,5.026,2.914,6,5
				c1.229-0.438,2.052-1.28,2-3c1.332-0.149,3.021,4.065,4,1c3.518,1.49,3.234,6.646,4,12c0.043,0.306-0.211,1.826,0,2
				c0.86,0.705,0.504,0.738,0,2c-0.144,0.354,0.275,1.774,0,2c-0.08,0.063-0.979-0.079-1,0c-0.562,2.392-0.076,6.533-1,9
				c-0.146,0.397-0.947-0.028-1,1c-0.09,1.677-0.432,1.903-2,2c-0.523-2.424,0.252-5.021,1-7c0.133-0.354-0.271-1.778,0-2
				c1.578-1.292,2.198-5.815,2-10c-0.076-1.585,0.478-3.815-1-4c-0.66-0.351-1.511,2.489-1,3c2.817,2.817-0.931,10.127-2,14
				c-0.172,0.62,0.156,1.373,0,2c-0.045,0.178-1.688,2.437-1,3c0.061,0.047,0.998-0.044,1,0c0.053,1.116-1.104,1.851,0,5
				c0.272,0.78,0.938,1.021,1,2c0.562,2.259,1.562-1.213,3,1c-2.06,4.878-5.354-1.373-7-3c0-4.335,0-8.667,0-13
				c-2.143,2.181-2.101,8.019-2,14c-0.185,0.851,0.389,0.942,1,1c-0.354,1.399-1.761,0.086-2-1c-1.032-0.004-0.702-1.254-1-2
				c-0.588-1.47-1.569-8.097-1-13c-0.002,0.012,2.858-7.479,1-9c-1.872-1.532,1.229-4.657-2-7
				C80.835,134.108,81.133,132.741,81.059,131z"/>
			<path id="svg_129" fill="#FFFFFF" stroke="#000000" stroke-miterlimit="10" d="M139.059,196c-0.107,2.447-3.307,0.212-3-1
				c-2.021-0.963-1.724-3.996-3-6c-0.724-1.136-1.123-2.085-2-3c-1.168-1.22,0.147-3.853-1-5c-0.099-0.099-0.957,0.116-1,0
				c-0.931-2.44-1.209-5.407-2-8c-0.451-1.476-1.211-4.026-2-6c-0.553-1.38-0.545-1.813-1-5c-0.043-0.306,0.211-1.828,0-2
				c-1.396-1.146,0.41-0.437,0-2c-0.062-0.235-0.932-0.119-1-1c-0.261-3.269,0.188-8.399,0-13c-0.164-1.163,0.221-1.778,1-2
				c0,0.665,0,1.333,0,2c0,1.333,0,2.665,0,4c0,2.665,0,5.333,0,8c1.48,4.644,1.659,7.931,3,13c0.799,3.024,2.479,6.467,4,10
				c0.75,1.743,1.252,4.319,2,6c0.207,0.463,0.942-0.08,1,1c0.088,1.679,0.543,1.101,1,2
				C135.994,189.842,136.811,194.214,139.059,196z"/>
			<path id="svg_130" fill="#FFFFFF" stroke="#000000" stroke-miterlimit="10" d="M112.059,147c-2.785-0.403-2.711,3.743-3,6
				c-0.185,1.424-0.797,10.349,0,11c1.375,1.125-0.357,0.428,0,2c0.045,0.197,0.953,0.129,1,1c0.062,1.149,0.043,1.788,1,2
				c-1.834,4.142,0.521,12.072,2,18c0.401,1.604,2.043,5.104,3,8c0.659,1.997,2.739,4.301,1,6c-2.399,0.349-3.022-3.021-4-5
				c-0.539-1.095-0.345-2.503-1-4c-0.219-0.499-1.886-1.629-2-2c-0.681-2.197-0.453-5.3-1-8c-0.252-1.235-1.762-5.024-2-7
				c-0.89-7.356-0.877-16.786,0-24c0-0.002,0.961-0.283,1-1c0.053-0.998-0.041-2.003,0-3c0.248-1.087,1.988-0.679,2-2
				c5.571,1.569,2.438,5.826,3,10c0.836,6.208,2.168,14.66,3,19c0.471,2.456,0.437,4.733,1,7c0.689,2.767,2.125,5.276,3,8
				c0.902,2.813,0.438,6.308,3,8c-0.188,1.135-1.004,0.556-1,0c-0.344-0.69-2.328-1.882-3-3c-1-1.664-0.147-2.757-1-5
				c-0.188-0.494-1.812-0.608-2-1c-0.381-0.801,0.252-2.146,0-3c-0.09-0.303-0.951-0.049-1-1c-0.065-1.286,0.231-2.737,0-4
				c-0.021-0.122-0.957-0.19-1-1c-0.131-2.467-0.479-4.812-1-8c-0.449-2.76-0.24-3.502-1-7c-0.182-0.836-0.849-1.003-1-2
				c0.053,0.347,1.573-0.54,1-1C109.427,158.896,113.186,151.694,112.059,147z"/>
			<path id="svg_131" fill="#FFFFFF" stroke="#000000" stroke-miterlimit="10" d="M46.059,166c1.159-0.204-0.347,4.998-1,8
				c-0.652,2.991-1.106,6.181-2,9c-0.106,0.33-0.949,0.024-1,1c-0.027,0.493-0.718,2.08-1,3c-0.468,1.521-0.355,2.496-1,4
				c-0.194,0.449-0.944-0.069-1,1c-0.106,2-0.746,4.86-4,5c0.981-5.49,4.127-10.205,6-15C43.082,176.815,44.337,171.704,46.059,166z
				"/>
			<path id="svg_132" fill="#FFFFFF" stroke="#000000" stroke-miterlimit="10" d="M79.059,167c3.16,0.915,1.847,4.967,2,8
				c0.154,3.06,0.017,6.747,0,10c-0.037,6.801,1.015,14.508-2,18c-1.163-0.163-1.78,0.222-2,1c-1.455-0.444,0.102-0.879,0-2
				C78.777,189.342,79.054,181.372,79.059,167z"/>
			<path id="svg_133" fill="#FFFFFF" stroke="#000000" stroke-miterlimit="10" d="M134.059,199c-2.586,0.144-3.84-2.917-5-5
				c-0.641-1.149-0.314-2.44-1-4c-0.238-0.541-1.852-1.579-2-2c-0.289-0.808,0.573-3.426,0-4c-0.732-0.735-0.683-0.729-1-2
				c-0.225-0.897-1.14-4.324-2-7c0-1,0-2,0-3c0.976,0.026,0.775,1.224,1,2c0.489,1.849,0.762,4.06,2,6c0.81,1.267,1.688,5.214,3,8
				c0.229,0.479,0.942-0.097,1,1c0.023,0.464,0.746,1.451,1,2c0.477,1.024,1.918,2.442,2,4
				C133.161,196.968,136.473,196.882,134.059,199z"/>
			<path id="svg_134" fill="#FFFFFF" stroke="#000000" stroke-miterlimit="10" d="M47.059,176c0.254-1.146,0.922-0.544,1,0
				c0.275,1.929-2.604,7.88-3,11C42.02,183.569,47.334,179.985,47.059,176z"/>
			<path id="svg_135" fill="#FFFFFF" stroke="#000000" stroke-miterlimit="10" d="M43.059,189c0.693-1.908,1.556,1.079,0,1
				c0.844,4.177-1.944,4.724-2,8C37.944,195.144,42.967,191.966,43.059,189z"/>
			<path id="svg_136" fill="#FFFFFF" stroke="#000000" stroke-miterlimit="10" d="M41.059,27c2.152,0.848,3.537,2.462,3,6
				c0.972-0.028,0.776-1.224,1-2c1.016,0.649,1.034,2.299,3,2c-0.041,3.04-0.582,6.581,3,6c0.725,3.059-1.726,2.941-1,6
				c-0.473,3.139,2.69,2.642,3,5c-0.422,2.623-1.398,2.793,0,6c0.198,0.455,0.943-0.074,1,1c0.145,2.76,2.976,3.554,6,4
				c-0.311,3.749-3.345,4.06-6,3c-0.573-3.761-1.749-6.918-6-7c2.692-2.6-1.223-3.016-1-6c0.666,0,1.333,0,2,0
				c-1.006-1.995-4.422-1.579-4-5c6.315-0.246-6.41-5.356,2-5c-0.561-1.44-1.561-2.44-3-3c-1.486,0.847-1.448,3.219-2,5
				c-2.481,0.147-4.853,0.186-5-2c-0.469-3.135,2.514-2.819,4-4c-0.113-2.555-1.834-3.5-3-5C37.585,28.86,40.749,29.358,41.059,27z"
				/>
		</g>
	</g>
</g>
<g id="Layer_2">
</g>
</svg>
