<?xml version="1.0" encoding="utf-8"?>
<!-- Generator: Adobe Illustrator 16.0.4, SVG Export Plug-In . SVG Version: 6.00 Build 0)  -->
<!DOCTYPE svg PUBLIC "-//W3C//DTD SVG 1.1//EN" "http://www.w3.org/Graphics/SVG/1.1/DTD/svg11.dtd">
<svg version="1.1" id="Layer_1" xmlns:svg="http://www.w3.org/2000/svg"
	 xmlns="http://www.w3.org/2000/svg" xmlns:xlink="http://www.w3.org/1999/xlink" x="0px" y="0px" width="74.109px" height="100px"
	 viewBox="0 0 74.109 100" enable-background="new 0 0 74.109 100" xml:space="preserve">
<g>
	<title>Layer 1</title>
	<g id="svg_117">
		<path id="svg_118" fill="#FFFFFF" stroke="#000000" stroke-opacity="0" d="M18.097,22.218c0.693,2.759-0.427,5.502-2.626,6.156
			c-2.191,0.652-4.675-1.178-5.417-4.127c-0.892-2.995,1.479-13.728,1.479-13.728S17.29,19.561,18.097,22.218z"/>
		<path id="svg_119" fill="#FFFFFF" stroke="#000000" stroke-opacity="0" d="M27.847,32.956c-0.911,2.538-3.361,4.022-5.549,3.134
			c-2.194-0.88-3.237-3.848-2.239-6.453c0.936-2.694,8.533-9.238,8.533-9.238S28.637,30.378,27.847,32.956z"/>
		<path id="svg_120" fill="#FFFFFF" stroke="#000000" stroke-opacity="0" d="M33.248,45.991c-0.642,2.604-2.9,4.348-5.179,3.717
			c-2.271-0.628-3.631-3.466-2.908-6.156c0.649-2.776,7.544-10.049,7.544-10.049S33.753,43.37,33.248,45.991z"/>
		<path id="svg_121" fill="#FFFFFF" stroke="#000000" stroke-opacity="0" d="M40.043,58.155c-0.323,2.635-2.337,4.659-4.672,4.331
			c-2.329-0.327-4.034-2.971-3.624-5.723c0.312-2.837,6.376-10.788,6.376-10.788S40.216,55.52,40.043,58.155z"/>
		<path id="svg_122" fill="#FFFFFF" stroke="#000000" stroke-opacity="0" d="M8.262,39.868c2.434,1.706,5.239,1.179,6.32-0.987
			c1.072-2.169,0.091-5.155-2.225-6.862C10.035,30.422,0,27.798,0,27.798S5.732,38.269,8.262,39.868z"/>
		<path id="svg_123" fill="#FFFFFF" stroke="#000000" stroke-opacity="0" d="M14.532,54.995c2.611,1.45,5.351,0.606,6.175-1.666
			c0.827-2.279-0.474-5.142-2.956-6.604c-2.479-1.347-12.733-2.944-12.733-2.944S11.818,53.663,14.532,54.995z"/>
		<path id="svg_124" fill="#FFFFFF" stroke="#000000" stroke-opacity="0" d="M22.606,69.438c2.794,1.136,5.399-0.058,5.923-2.424
			c0.525-2.375-1.125-5.052-3.763-6.222c-2.622-1.038-13.017-1.526-13.017-1.526S19.71,68.447,22.606,69.438z"/>
		<path id="svg_125" fill="#FFFFFF" stroke="#000000" stroke-opacity="0" d="M48.294,69.096c0.031,2.639-1.629,4.928-3.992,4.971
			c-2.342,0.029-4.406-2.346-4.378-5.11c-0.096-2.854,4.933-11.467,4.933-11.467S48.068,66.499,48.294,69.096z"/>
		<path id="svg_126" fill="#FFFFFF" stroke="#000000" stroke-opacity="0" d="M32.708,82.82c2.941,0.75,5.356-0.846,5.502-3.26
			c0.16-2.438-1.854-4.852-4.644-5.65c-2.747-0.65-13.155,0.148-13.155,0.148S29.645,82.279,32.708,82.82z"/>
		<path id="svg_127" fill="#FFFFFF" stroke="#000000" stroke-opacity="0" d="M72.775,99.921
			c-14.424-5.55-27.001-15.413-36.451-27.534C26.8,60.266,20.065,46.183,15.472,31.569c-0.167-0.541,0.092-1.099,0.58-1.247l0,0
			c0.487-0.148,1.015,0.163,1.18,0.696l0,0c4.536,14.438,11.189,28.328,20.54,40.227c9.285,11.903,21.573,21.528,35.674,26.958
			c0.516,0.203,0.789,0.754,0.611,1.23l0,0C73.877,99.912,73.304,100.13,72.775,99.921L72.775,99.921z"/>
	</g>
	<g id="svg_128">
		<path id="svg_129" fill="#FFFFFF" stroke="#000000" stroke-opacity="0" d="M62.6,9.624c-0.882,1.857-2.75,2.904-4.303,2.284
			c-1.542-0.613-2.121-2.816-1.156-4.854C58.027,4.886,64.407,0,64.407,0S63.331,7.775,62.6,9.624z"/>
		<path id="svg_130" fill="#FFFFFF" stroke="#000000" stroke-opacity="0" d="M63.407,19.978c-1.613,1.032-3.698,0.857-4.592-0.599
			c-0.922-1.459-0.188-3.644,1.53-4.685c1.759-1.143,9.006-1.27,9.006-1.27S64.946,18.839,63.407,19.978z"/>
		<path id="svg_131" fill="#FFFFFF" stroke="#000000" stroke-opacity="0" d="M61.215,29.654c-1.422,1.271-3.508,1.442-4.626,0.153
			c-1.146-1.286-0.785-3.563,0.759-4.855c1.529-1.418,8.676-2.614,8.676-2.614S62.539,28.276,61.215,29.654z"/>
		<path id="svg_132" fill="#FFFFFF" stroke="#000000" stroke-opacity="0" d="M60.661,39.531c-1.203,1.492-3.207,2.006-4.543,0.921
			c-1.323-1.079-1.373-3.383-0.061-4.914c1.285-1.656,8.128-3.993,8.128-3.993S61.738,37.941,60.661,39.531z"/>
		<path id="svg_133" fill="#FFFFFF" stroke="#000000" stroke-opacity="0" d="M48.992,15.466c0.658,2.127,2.527,3.018,4.107,2.198
			c1.558-0.833,2.332-3.001,1.768-5.053c-0.613-1.955-5.025-8.168-5.025-8.168S48.176,13.356,48.992,15.466z"/>
		<path id="svg_134" fill="#FFFFFF" stroke="#000000" stroke-opacity="0" d="M46.259,27.545c0.996,2.001,2.986,2.572,4.411,1.503
			c1.403-1.079,1.808-3.345,0.938-5.284c-0.945-1.835-6.233-7.333-6.233-7.333S45.093,25.594,46.259,27.545z"/>
		<path id="svg_135" fill="#FFFFFF" stroke="#000000" stroke-opacity="0" d="M45.561,39.939c1.305,1.807,3.385,2.038,4.594,0.748
			c1.225-1.297,1.221-3.598,0.046-5.367c-1.227-1.648-7.354-6.22-7.354-6.22S44.087,38.219,45.561,39.939z"/>
		<path id="svg_136" fill="#FFFFFF" stroke="#000000" stroke-opacity="0" d="M61.737,49.402c-0.937,1.675-2.85,2.505-4.329,1.644
			c-1.486-0.854-1.904-3.12-0.861-4.848c0.997-1.845,7.357-5.294,7.357-5.294S62.548,47.648,61.737,49.402z"/>
		<path id="svg_137" fill="#FFFFFF" stroke="#000000" stroke-opacity="0" d="M46.902,52.242c1.583,1.562,3.658,1.462,4.657-0.006
			c0.993-1.473,0.621-3.744-0.828-5.292c-1.479-1.424-8.274-4.908-8.274-4.908S45.181,50.792,46.902,52.242z"/>
		<path id="svg_138" fill="#FFFFFF" stroke="#000000" stroke-opacity="0" d="M64.979,78.329
			c-6.371-9.34-10.425-20.146-11.957-31.316c-1.539-11.178-0.15-22.721,3.834-33.261c0.139-0.393,0.551-0.593,0.894-0.46l0,0
			c0.348,0.135,0.497,0.546,0.361,0.931l0,0c-8.123,20.736-4.498,45.102,7.961,63.33c0.232,0.328,0.186,0.762-0.105,0.989l0,0
			C65.672,78.77,65.222,78.672,64.979,78.329L64.979,78.329z"/>
	</g>
</g>
</svg>
